<svg id="iconmonstr" xmlns="http://www.w3.org/2000/svg" viewBox="0 0 24 24"><defs><style>.cls-1{fill:#f4ba46;}</style></defs><title>Artboard 1</title><path class="cls-1" d="M21.14,8.75l-.47,0,0-.47C20.12,2.42,15,1.55,12,1.55s-8.12.87-8.63,6.7l0,.47-.47,0C.78,8.9.55,11.37.55,12.43c0,1.6.73,4.15,2.75,4.62l.3.07.1.29c1.11,3.3,4,5,8.3,5s7.19-1.74,8.3-5l.1-.29.3-.07c2-.47,2.75-3,2.75-4.62C23.45,11.37,23.22,8.9,21.14,8.75ZM20,16.23a.44.44,0,0,0-.42.33c-.59,2.28-2.39,5-7.62,5s-7-2.71-7.62-5A.44.44,0,0,0,4,16.23c-1,0-1.87-.83-2.27-2.23s-.28-3.55.64-4.15a1.27,1.27,0,0,1,.7-.2,1.4,1.4,0,0,1,.58.12.58.58,0,0,0,.18,0,.47.47,0,0,0,.33-.14.42.42,0,0,0,.12-.33A6.2,6.2,0,0,1,7.79,3.12l1-.47-.26,1.1a3,3,0,0,0,.6,2.58,4.61,4.61,0,0,0,3.69,1.56H13a2.45,2.45,0,0,1-.72-2.11,3.12,3.12,0,0,1,3.07-2.64,3.71,3.71,0,0,1,2.07.69,6.36,6.36,0,0,1,2.38,5.51.44.44,0,0,0,.12.33.52.52,0,0,0,.33.14.58.58,0,0,0,.18,0A1.37,1.37,0,0,1,21,9.65a1.27,1.27,0,0,1,.7.2c.92.6,1.07,2.63.64,4.15S21.08,16.21,20,16.23Z"/><path class="cls-1" d="M8.62,16.67A3.74,3.74,0,0,0,12,18.58a3.77,3.77,0,0,0,3.36-1.9l.22-.38H8.4Z"/><ellipse class="cls-1" cx="15.25" cy="11.5" rx="0.95" ry="1.2"/><ellipse class="cls-1" cx="8.75" cy="11.5" rx="0.95" ry="1.2"/></svg>