<svg id="Layer_1" data-name="Layer 1" xmlns="http://www.w3.org/2000/svg" viewBox="0 0 24 24"><defs><style>.cls-1{fill:#f4ba46;}</style></defs><title>calendar</title><path class="cls-1" d="M7.38,10.62H4.62v2.76H7.38Zm6,0H10.62v2.76h2.76Zm6,0H16.62v2.76h2.76Zm-12,6H4.62v2.76H7.38Zm6,0H10.62v2.76h2.76Zm6,0H16.62v2.76h2.76ZM5,3.64A.64.64,0,0,1,4.36,3V1A.64.64,0,0,1,5.64,1V3A.64.64,0,0,1,5,3.64Zm14,0A.64.64,0,0,1,18.36,3V1a.64.64,0,0,1,1.28,0V3A.64.64,0,0,1,19,3.64ZM20,2V3a1,1,0,0,1-2,0V2H6V3A1,1,0,0,1,4,3V2H0V24H24V2Zm3,21H1V6H23Z"/></svg>