<svg id="Layer_1" data-name="Layer 1" xmlns="http://www.w3.org/2000/svg" viewBox="0 0 24 24"><defs><style>.cls-1{fill:#fff;fill-rule:evenodd;}</style></defs><title>camera</title><path class="cls-1" d="M17,2l1.41,2.11A2,2,0,0,0,20.05,5H24V22H0V5H5.91a2,2,0,0,0,1.67-.89L9,2Zm3.07,4a3,3,0,0,1-2.49-1.34L16.45,3H9.52L8.41,4.66A3,3,0,0,1,5.91,6H1V21H23V6ZM13,7a6,6,0,1,1-6,6A6,6,0,0,1,13,7Zm0,1a5,5,0,1,1-5,5A5,5,0,0,1,13,8Zm0,2a3,3,0,1,1-3,3A3,3,0,0,1,13,10Zm0,1a2,2,0,1,1-2,2A2,2,0,0,1,13,11ZM5,9a1,1,0,1,0-1,1A1,1,0,0,0,5,9ZM2,3H5V4H2Z"/></svg>