<?xml version="1.0" encoding="utf-8"?>
<!-- Generator: Adobe Illustrator 23.0.6, SVG Export Plug-In . SVG Version: 6.00 Build 0)  -->
<svg version="1.1" id="Layer_1" xmlns="http://www.w3.org/2000/svg" xmlns:xlink="http://www.w3.org/1999/xlink" x="0px" y="0px"
	 viewBox="0 0 24 24" style="enable-background:new 0 0 24 24;" xml:space="preserve">
<style type="text/css">
	.st0{fill-rule:evenodd;clip-rule:evenodd;fill:#FFFFFF;}
</style>
<title>Artboard 2</title>
<path class="st0" d="M12,0c6.6,0,12,5.4,12,12s-5.4,12-12,12S0,18.6,0,12S5.4,0,12,0z M12,1c6.1,0,11,4.9,11,11s-4.9,11-11,11
	S1,18.1,1,12S5.9,1,12,1z M12,11.3L17.3,6L18,6.7L12.7,12l5.3,5.3L17.3,18L12,12.7L6.7,18L6,17.3l5.3-5.3L6,6.7L6.7,6L12,11.3z"/>
</svg>
