<svg id="iconmonstr" xmlns="http://www.w3.org/2000/svg" viewBox="0 0 24.92 15.16"><defs><style>.cls-1{fill:none;stroke:#fff;stroke-miterlimit:10;stroke-width:0.75px;}.cls-2{fill:#fff;}</style></defs><title>cash</title><path class="cls-1" d="M14.78,6.94A3.32,3.32,0,0,0,11.37,5a1.85,1.85,0,0,0-1.44,2.7,3.31,3.31,0,0,0,3.6,1.87A1.85,1.85,0,0,0,14.78,6.94Z"/><path class="cls-2" d="M13.09,8.52l.12.27L13,8.84l-.11-.25a2.17,2.17,0,0,1-.84,0l-.08-.46a2.25,2.25,0,0,0,.73,0l.14-.05c.26-.13.18-.45-.2-.53s-1,0-1.32-.64A.63.63,0,0,1,11.69,6l-.12-.28.25,0,.12.27a2.78,2.78,0,0,1,.66,0l.1.44a2.42,2.42,0,0,0-.6,0l-.07,0c-.36.1-.24.44.08.52.52.12,1.15.16,1.4.71A.62.62,0,0,1,13.09,8.52Z"/><path class="cls-1" d="M20.29.55C13.46,5,5.91.2.45,5.47l4.16,9.08c5.86-5,13.84-.26,19.84-4.92Z"/></svg>