<svg xmlns="http://www.w3.org/2000/svg" viewBox="0 0 24.92 15.16"><defs><style>.a{fill:#302852;}</style></defs><title>cash-rev</title><path class="a" d="M12.94,10A3.68,3.68,0,0,1,9.59,7.86a2.53,2.53,0,0,1-.24-.78,2.23,2.23,0,0,1,2-2.45,3.68,3.68,0,0,1,3.79,2.15,1.85,1.85,0,0,1,.17.5,2.23,2.23,0,0,1-1.68,2.66A3.79,3.79,0,0,1,12.94,10ZM11.76,5.35l-.35,0A1.48,1.48,0,0,0,10.1,7a1.7,1.7,0,0,0,.16.53,2.94,2.94,0,0,0,3.2,1.67,1.47,1.47,0,0,0,1.1-1.76,1,1,0,0,0-.12-.33v0A2.93,2.93,0,0,0,11.76,5.35Z"/><path class="a" d="M13.09,8.52l.12.27L13,8.84l-.11-.25a2.37,2.37,0,0,1-.84,0L12,8.13a2.24,2.24,0,0,0,.73,0l.14-.05c.26-.13.18-.45-.2-.53s-1,0-1.32-.64a.64.64,0,0,1,.24-.86l.13,0-.12-.28h.25l.12.27a2.43,2.43,0,0,1,.66,0l.1.44a3,3,0,0,0-.6,0H12c-.36.1-.24.44.08.52.52.12,1.15.16,1.4.71a.62.62,0,0,1-.31.82Z"/><path class="a" d="M4.48,15.16,0,5.38.19,5.2c3-2.85,6.43-2.86,10.1-2.87,3.26,0,6.62,0,9.79-2.09L20.45,0l4.47,9.74-.24.19c-3.05,2.36-6.59,2.38-10,2.41-3.57,0-6.94,0-9.82,2.49ZM.9,5.56,4.75,14c3-2.32,6.51-2.34,9.91-2.36s6.53,0,9.32-2.08L20.13,1.09c-3.25,2-6.59,2-9.83,2C6.86,3.09,3.6,3.1.9,5.56Z"/></svg>