 
<svg version="1.1" id="Layer_1" xmlns="http://www.w3.org/2000/svg" xmlns:xlink="http://www.w3.org/1999/xlink" x="0px" y="0px"
	 viewBox="0 0 68 68" style="enable-background:new 0 0 68 68;" xml:space="preserve">
<style type="text/css">
	.st0{fill-rule:evenodd;clip-rule:evenodd;fill:#BCB0C4;enable-background:new    ;}
	.st1{fill-rule:evenodd;clip-rule:evenodd;fill:#1F1844;enable-background:new    ;}
</style>
<circle class="st0" cx="38" cy="38" r="30"/>
<path class="st1" d="M32.7,0c18,0,32.7,14.7,32.7,32.7S50.7,65.4,32.7,65.4S0,50.7,0,32.7S14.7,0,32.7,0z M32.7,2.7
	c16.5,0,30,13.4,30,30s-13.4,30-30,30s-30-13.4-30-30S16.2,2.7,32.7,2.7z M32.8,49c1.3,0,2.3-1,2.3-2.3c0-1.3-1-2.3-2.3-2.3
	c-1.3,0-2.3,1-2.3,2.3C30.5,48,31.6,49,32.8,49z M34.1,41.4h-2.7c-0.1-3.2,0.5-5.6,2.6-8c1.3-1.6,4.4-4,5.3-5.6
	c2-3.3,0.2-8.7-6.2-8.7c-3.9,0-7.1,2.4-8,6.8l-2.8-0.3c0.8-6.1,5.3-9.3,10.7-9.3s9.8,3.4,9.8,8.8c0,4.9-5,7.6-7.2,10.5
	C34.5,37.2,34.2,39.4,34.1,41.4z"/>
</svg>
