<svg xmlns="http://www.w3.org/2000/svg" viewBox="0 0 16.25 24.25"><defs><style>.a{fill:#1f1844;}.b{fill:#bcb0c4;}</style></defs><title>Artboard 3</title><path class="a" d="M14.73,7.32h0a6.39,6.39,0,0,0,1.52-4.11V0H0V3.21A6.39,6.39,0,0,0,1.52,7.32L4.6,11a1.66,1.66,0,0,1,0,2.15L1.48,16.94A6.47,6.47,0,0,0,0,21v3.23H16.25V21a6.47,6.47,0,0,0-1.48-4.08l-3.13-3.79a1.66,1.66,0,0,1,0-2.15Zm-3.67,6.31,3.13,3.79a5.68,5.68,0,0,1,1.31,3.7V23.5H.75V21.12a5.66,5.66,0,0,1,1.31-3.7l3.13-3.79a2.44,2.44,0,0,0,0-3.11L2.09,6.84A5.68,5.68,0,0,1,.75,3.12V.75H15.5V3.12a5.7,5.7,0,0,1-1.34,3.72l-3.09,3.68A2.44,2.44,0,0,0,11.06,13.63Z"/><polygon class="b" points="2.13 21.13 2.13 22.13 14.13 22.13 14.13 21.13 8.13 20.21 2.13 21.13"/><path class="b" d="M8.12,11.26l5-5.61a4.25,4.25,0,0,0,1-2.83h-12a4.28,4.28,0,0,0,1,2.83Z"/></svg>