<?xml version="1.0" encoding="utf-8"?>
<!-- Generator: Adobe Illustrator 23.0.6, SVG Export Plug-In . SVG Version: 6.00 Build 0)  -->
<svg version="1.1" id="Layer_1" xmlns="http://www.w3.org/2000/svg" xmlns:xlink="http://www.w3.org/1999/xlink" x="0px" y="0px"
	 viewBox="0 0 34.5 46.4" style="enable-background:new 0 0 34.5 46.4;" xml:space="preserve">
<style type="text/css">
	.st0{fill:#1F1844;}
</style>
<title>Artboard 3</title>
<g>
	<path class="st0" d="M31.7,45.7L31.7,45.7c0-15-8.2-20.1-10.9-21.8c-0.3-0.2-0.6-0.4-0.8-0.6v-0.2c0.3-0.3,0.6-0.5,0.9-0.7
		c2.9-2.2,10.8-8.1,10.8-21.6l0,0H34V0.2H0.2v0.5h3.4l0,0c0,15,8.2,20.1,10.9,21.8c0.3,0.2,0.6,0.4,0.8,0.6v0.2
		c-0.3,0.3-0.6,0.5-0.9,0.7c-2.9,2.2-10.8,8.1-10.8,21.7l0,0H0.5v0.5h33.8v-0.5L31.7,45.7z M4.1,45.7L4.1,45.7
		c0-13.3,7.7-19.1,10.6-21.3c0.8-0.6,1.1-0.8,1.1-1.1V23c0-0.3-0.3-0.5-1-0.9C12.1,20.5,4.1,15.4,4.1,0.8l0,0h27l0,0
		c0,13.3-7.7,19.1-10.6,21.3c-0.8,0.6-1.1,0.8-1.1,1.1v0.3c0,0.3,0.3,0.4,1,0.9c2.7,1.7,10.7,6.7,10.7,21.4l0,0L4.1,45.7z"/>
	<path class="st0" d="M34.5,46.4H0.3v-1h3.1C3.5,32,11.3,26.1,14.2,23.9c0.3-0.2,0.6-0.4,0.8-0.6c-0.2-0.2-0.4-0.3-0.7-0.4
		C11.7,21.1,3.5,15.9,3.4,1H0V0h34.2v1h-2.3C31.8,14.4,24,20.3,21.1,22.6c-0.3,0.2-0.6,0.4-0.8,0.6c0.2,0.2,0.4,0.3,0.7,0.5
		c2.7,1.7,10.9,6.9,11,21.8h2.6L34.5,46.4L34.5,46.4z M4.4,1c0.1,14.4,7.9,19.3,10.5,21c0.8,0.5,1.1,0.7,1.1,1.1v0.3
		c0,0.4-0.3,0.6-1.2,1.3C12,26.8,4.5,32.5,4.4,45.5h26.5c-0.1-14.5-8-19.3-10.6-21h-0.1c-0.7-0.5-1.1-0.7-1.1-1.1v-0.3
		c0-0.4,0.3-0.6,1.1-1.2h0.1c3-2.2,10.5-7.9,10.6-20.9H4.4z M15.5,23.5L15.5,23.5c-0.3,0.3-0.6,0.5-0.9,0.8
		c-0.7,0.5-1.6,1.2-2.7,2.2c1-1,2-1.7,2.7-2.2C15,23.9,15.4,23.6,15.5,23.5z"/>
</g>
<path class="st0" d="M28.5,43.1H6.8l0.1-0.3c0.9-4.6,6.7-5.1,11-5.1s10.1,2.5,10.5,5.1L28.5,43.1z M7.5,42.6h20.4
	c-0.8-2.1-6-4.5-10-4.5S8.5,38.6,7.5,42.6L7.5,42.6z M17.6,21.1l-0.2-0.2c-0.4-0.4-0.8-0.7-1.3-1c-4.4-2.6-7.6-7-8.6-12V7.6
	l19.8,1.3l-0.1,0.3c-1.6,4.3-4.4,8.1-8.2,10.7c-0.4,0.3-0.8,0.6-1.2,1L17.6,21.1z M8.1,8.1c1.1,4.8,4.1,8.9,8.3,11.4
	c0.4,0.3,0.8,0.6,1.2,0.9c0.3-0.3,0.7-0.6,1.1-0.9c3.6-2.5,6.4-6.1,7.9-10.2L8.1,8.1z"/>
<path class="st0" d="M28.8,43.3H6.5l0.1-0.6c1-4.8,6.9-5.3,11.2-5.3s10.3,2.6,10.8,5.3L28.8,43.3z M7.8,42.3h19.7
	c-1.2-1.9-6-4-9.6-4C14.1,38.4,9,38.8,7.8,42.3z M22,38.5c2.6,0.8,5,2.1,5.9,3.5C27,40.6,24.6,39.3,22,38.5z M17.7,21.4L17.3,21
	c-0.4-0.4-0.8-0.7-1.3-1c-4.4-2.5-7.6-7-8.7-12L7.1,7.3l20.5,1.3l-0.2,0.6c-1.6,4.4-4.5,8.2-8.3,10.8c-0.4,0.3-0.8,0.6-1.2,1
	L17.7,21.4z M17.3,20.4c0.1,0.1,0.2,0.2,0.4,0.3c0.3-0.3,0.6-0.5,0.9-0.8c-0.2,0.2-0.5,0.4-0.7,0.6l-0.2,0.1l-0.2-0.1
	C17.4,20.5,17.4,20.4,17.3,20.4z M8.4,8.3c1.1,4.6,4.1,8.5,8.1,10.9c0.4,0.2,0.7,0.5,1.1,0.8c0.3-0.3,0.6-0.5,0.9-0.7
	c3.5-2.4,6.2-5.8,7.7-9.8L8.4,8.3z"/>
<g>
	<path class="st0" d="M17.6,26.2c-0.3,0-0.5-0.2-0.5-0.5s0.2-0.5,0.5-0.5s0.5,0.2,0.5,0.5l0,0C18.2,26,17.9,26.2,17.6,26.2
		C17.7,26.2,17.7,26.2,17.6,26.2z M17.6,25.7L17.6,25.7z"/>
	<path class="st0" d="M17.7,26.4L17.7,26.4c-0.4,0-0.8-0.3-0.8-0.8c0-0.4,0.3-0.8,0.8-0.8s0.8,0.3,0.8,0.8
		C18.4,26.1,18.1,26.4,17.7,26.4z M17.7,25.4c-0.1,0-0.2,0.1-0.3,0.2c0,0.1,0.1,0.2,0.2,0.2l0,0c0.1,0,0.2-0.1,0.2-0.2
		C17.9,25.5,17.8,25.4,17.7,25.4z"/>
</g>
<g>
	<path class="st0" d="M18.2,28.8c-0.3,0-0.5-0.2-0.5-0.5s0.2-0.5,0.5-0.5s0.5,0.2,0.5,0.5S18.4,28.8,18.2,28.8z M18.2,28.3
		L18.2,28.3z"/>
	<path class="st0" d="M18.2,29c-0.4,0-0.8-0.3-0.8-0.8c0-0.4,0.3-0.7,0.7-0.8c0.4,0,0.8,0.3,0.8,0.8S18.6,29,18.2,29z M18.2,28
		c-0.1,0-0.2,0.1-0.2,0.3c0,0.1,0.1,0.2,0.2,0.2s0.2-0.1,0.2-0.2S18.3,28,18.2,28z"/>
</g>
<g>
	<path class="st0" d="M15.1,31.9c-0.3,0-0.5-0.2-0.5-0.5s0.2-0.5,0.5-0.5s0.5,0.2,0.5,0.5S15.3,31.9,15.1,31.9z M15.1,31.4
		L15.1,31.4z"/>
	<path class="st0" d="M15.1,32.2c-0.4,0-0.8-0.3-0.8-0.8s0.3-0.8,0.8-0.8s0.8,0.3,0.8,0.8S15.5,32.2,15.1,32.2z M15.1,31.2
		c-0.1,0-0.2,0.1-0.2,0.2s0.1,0.2,0.2,0.2s0.2-0.1,0.2-0.2S15.2,31.2,15.1,31.2z"/>
</g>
<path class="st0" d="M18.2,33.5c-0.3,0-0.5-0.2-0.5-0.5s0.2-0.5,0.5-0.5s0.5,0.2,0.5,0.5S18.4,33.5,18.2,33.5z M18.2,33L18.2,33z"/>
<path class="st0" d="M18.2,33.7L18.2,33.7c-0.4,0-0.7-0.3-0.8-0.7c0-0.4,0.3-0.8,0.8-0.8c0.4,0,0.8,0.3,0.8,0.8S18.6,33.7,18.2,33.7
	z M18.2,32.7c-0.1,0-0.2,0.1-0.2,0.2c0,0.1,0.1,0.2,0.3,0.2c0.1,0,0.2-0.1,0.2-0.2C18.4,32.8,18.3,32.7,18.2,32.7z"/>
<path class="st0" d="M15.1,36.1c-0.3,0-0.5-0.2-0.5-0.5s0.2-0.5,0.5-0.5s0.5,0.2,0.5,0.5C15.6,35.8,15.3,36.1,15.1,36.1z M15.1,35.6
	L15.1,35.6z"/>
<path class="st0" d="M15.1,36.3L15.1,36.3c-0.4,0-0.8-0.3-0.8-0.8s0.3-0.8,0.8-0.8s0.8,0.3,0.8,0.8C15.8,36,15.5,36.3,15.1,36.3
	L15.1,36.3z M15.1,35.3c-0.1,0-0.2,0.1-0.2,0.2c0,0.1,0.1,0.2,0.2,0.2c0.1,0,0.2-0.1,0.3-0.3C15.3,35.4,15.2,35.3,15.1,35.3z"/>
</svg>
