
							<?xml version="1.0" encoding="utf-8"?>

								<svg version="1.1" id="_ÎÓÈ_1" xmlns="http://www.w3.org/2000/svg" xmlns:xlink="http://www.w3.org/1999/xlink" x="0px" y="0px" viewBox="0 0 67.1 67.1" style="enable-background:new 0 0 67.1 67.1;" xml:space="preserve">
									<style type="text/css">
								.wow2{fill:#FFFFFF;}
								.wow{fill:#BCB0C4;}
									</style>
									
									<g id="icon">
										
								<title>infant-icon</title>
								<path class="wow" d="M28.6,32c-0.7,0-1.3-0.6-1.3-1.3s0.6-1.3,1.3-1.3s1.3,0.6,1.3,1.3l0,0C29.8,31.4,29.3,32,28.6,32z M28.6,30.6
									C28.5,30.6,28.5,30.7,28.6,30.6C28.5,30.8,28.6,30.8,28.6,30.6C28.7,30.7,28.6,30.6,28.6,30.6L28.6,30.6L28.6,30.6z"/>
								<path class="wow" d="M37.7,32c-0.7,0-1.3-0.6-1.2-1.3s0.6-1.3,1.3-1.2c0.7,0,1.2,0.6,1.2,1.2C39,31.4,38.5,32,37.7,32
									C37.7,32,37.7,32,37.7,32z M37.7,30.6C37.6,30.6,37.6,30.7,37.7,30.6C37.6,30.8,37.8,30.8,37.7,30.6C37.8,30.7,37.8,30.6,37.7,30.6
									L37.7,30.6L37.7,30.6z"/>
								<path class="wow" d="M33.5,40.5c-2.5,0-4.5,2-4.5,4.5s2,4.5,4.5,4.5c2.3,0,4.1-1.7,4.4-3.9c0-0.1,0-0.1,0-0.2c0-0.1,0-0.3,0-0.4
									l0,0C38,42.5,36,40.5,33.5,40.5z M33.5,41.7c0.4,0,0.8,0.1,1.2,0.2c-0.8,0.1-1.6,0.1-2.4,0C32.7,41.8,33.1,41.7,33.5,41.7z
									 M33.5,48.3c-1.4,0-2.5-0.8-3-2c1,0.2,2,0.3,3,0.3s2-0.1,3-0.3C36,47.5,34.9,48.3,33.5,48.3z M30.2,45c0-0.8,0.3-1.6,0.8-2.1
									c0.8,0.3,1.6,0.4,2.5,0.4c0.8,0,1.7-0.1,2.5-0.4c0.5,0.6,0.8,1.3,0.8,2.1C34.6,45.6,32.4,45.6,30.2,45z"/>
								<path class="wow" d="M48.2,28.8c-0.5,0-1,0.1-1.5,0.4c-0.6-2.2-1.8-4.3-3.5-5.9l1.2,0.1c0.2,0,0.5-0.1,0.6-0.4
									c1.1-2.8-1-5.6-1.1-5.8c-0.2-0.2-0.5-0.3-0.8-0.2l-4.9,2.5c-0.1-0.3-0.4-0.5-0.7-0.4l-1.3,0.3l0,0c-0.9-0.2-1.8-0.3-2.6-0.3l0,0
									c-1.9-0.2-3.6-1.1-4.9-2.5c-0.1-0.1-0.2-0.3-0.3-0.5c-0.2-0.6,0.2-1.2,0.8-1.4c0.3-0.1,0.6,0,0.9,0.1l0.4,0.2l0,0
									c0.3,0.2,0.6,0.1,0.8-0.2c0.2-0.3,0.1-0.7-0.2-0.8l-0.4-0.2c0,0,0,0-0.1,0c-1.1-0.6-2.6-0.2-3.2,0.9c-0.5,0.9-0.4,2,0.4,2.8
									s1.7,1.5,2.7,2c-0.6,0.1-1.3,0.3-1.9,0.6h-1.1c-0.3,0-0.6,0.2-0.6,0.5c0,0,0,0.1,0,0.3c-3.2,1.8-5.6,4.8-6.6,8.3
									c-0.4-0.3-1-0.4-1.5-0.4c-1.9,0-3.4,1.8-3.4,4.1s1.5,4.1,3.4,4.1c0.5,0,1-0.1,1.5-0.4c1,3.7,3.6,6.8,7,8.6c0.1,3.4,2.8,6.2,6.3,6.2
									c3.4,0,6.2-2.8,6.3-6.2c3.4-1.8,5.9-4.9,7-8.6c0.4,0.3,0.9,0.4,1.5,0.4c1.9,0,3.4-1.8,3.4-4.1S50.1,28.8,48.2,28.8z M43.3,18.3
									c0.7,1.1,1,2.4,0.8,3.8l-4.5-0.3l1.4-0.2c0.1,0,0.2,0,0.3-0.1c0.3-0.2,0.4-0.5,0.3-0.8s-0.5-0.4-0.8-0.3l-2.2,0.3l0,0L43.3,18.3z
									 M37.8,22.3l-1.9,0.5l-0.5-2l2-0.4L37.8,22.3z M34.1,21.4L31.6,22l0,0c-0.3,0.1-0.5,0.4-0.4,0.7c0.1,0.3,0.3,0.5,0.6,0.5h0.1
									l2.7-0.6l-5.3,2.7c-1-0.9-1.1-2.8-1.1-4L34.1,21.4z M38.6,45c0,2.8-2.3,5.1-5.1,5.1s-5.1-2.3-5.1-5.1s2.3-5.1,5.1-5.1
									S38.6,42.2,38.6,45L38.6,45z M29.4,39.7c0-1.3,1.9-2.3,4.2-2.3s4.2,1,4.2,2.3c0,0.2,0,0.4-0.1,0.5c-1.1-1-2.5-1.5-4.1-1.5
									c-1.5,0-3,0.6-4.1,1.5C29.4,40,29.4,39.9,29.4,39.7z M48.2,35.7c-0.5,0-1-0.2-1.4-0.6c-0.2-0.2-0.4-0.2-0.6-0.2
									c-0.2,0.1-0.4,0.2-0.4,0.5c-0.7,3.6-3,6.6-6.1,8.4c-0.2-1-0.6-1.9-1.2-2.6c0.3-0.4,0.4-0.9,0.4-1.4c0-2-2.4-3.5-5.4-3.5
									s-5.4,1.5-5.4,3.5c0,0.5,0.2,1,0.4,1.4c-0.6,0.8-1,1.7-1.2,2.7C24.2,42,22,39,21.2,35.4c0-0.2-0.2-0.4-0.4-0.5
									c-0.2-0.1-0.4,0-0.6,0.2c-0.4,0.4-0.9,0.6-1.4,0.6c-1.2,0-2.2-1.3-2.2-2.9c0-1.6,1-2.9,2.2-2.9c0.6,0,1.1,0.3,1.4,0.7
									c0.2,0.2,0.4,0.2,0.6,0.2c0.2-0.1,0.4-0.2,0.4-0.4c0.7-3.4,2.7-6.3,5.6-8.1c0.1,1.4,0.5,3.3,1.9,4.2c0.1,0.1,0.2,0.1,0.3,0.1
									c0.1,0,0.2,0,0.3-0.1l5.4-2.7c0,0.1,0.1,0.3,0.3,0.3c0.1,0.1,0.2,0.1,0.3,0.1s0.1,0,0.1-0.1l3.1-0.8c0.2-0.1,0.3-0.2,0.4-0.4
									l2.3,0.2c2.3,1.8,3.9,4.4,4.4,7.3c0,0.2,0.2,0.4,0.4,0.5s0.4,0,0.6-0.2c0.4-0.4,0.9-0.6,1.4-0.7c1.2,0,2.2,1.3,2.2,2.8
									C50.5,34.4,49.5,35.7,48.2,35.7z"/>
								<path class="wow" d="M20.7,34.1c-0.3,0-0.6-0.3-0.6-0.6v-1c0-0.3,0.3-0.6,0.6-0.6s0.6,0.3,0.6,0.6l0,0v1
									C21.3,33.8,21.1,34.1,20.7,34.1z"/>
								<path class="wow" d="M46.4,34.2L46.4,34.2c-0.4,0-0.6-0.3-0.6-0.6l0,0l0.1-1.2c0-0.3,0.3-0.6,0.7-0.5c0.3,0,0.6,0.3,0.6,0.6l0,0
									L47,33.7C47,34,46.7,34.2,46.4,34.2z"/>
									</g>
							</svg>