<?xml version="1.0" encoding="utf-8"?>
<!-- Generator: Adobe Illustrator 23.0.6, SVG Export Plug-In . SVG Version: 6.00 Build 0)  -->
<svg version="1.1" id="_ÎÓÈ_1" xmlns="http://www.w3.org/2000/svg" xmlns:xlink="http://www.w3.org/1999/xlink" x="0px" y="0px"
	 viewBox="0 0 36.4 37.9" style="enable-background:new 0 0 36.4 37.9;" xml:space="preserve">
<style type="text/css">
	.st0{fill:#FFFFFF;}
</style>
<g id="icon">
	<path class="st0" d="M13.2,18.5c-0.7,0-1.3-0.6-1.3-1.3s0.6-1.3,1.3-1.3s1.3,0.6,1.3,1.3l0,0C14.4,17.9,13.9,18.5,13.2,18.5z
		 M13.2,17.1C13.1,17.1,13.1,17.2,13.2,17.1C13.1,17.3,13.2,17.3,13.2,17.1C13.3,17.2,13.2,17.1,13.2,17.1L13.2,17.1L13.2,17.1z"/>
	<path class="st0" d="M22.3,18.5c-0.7,0-1.3-0.6-1.2-1.3s0.6-1.3,1.3-1.2c0.7,0,1.2,0.6,1.2,1.2C23.6,17.9,23.1,18.5,22.3,18.5
		L22.3,18.5z M22.3,17.1C22.2,17.1,22.2,17.2,22.3,17.1C22.2,17.3,22.4,17.3,22.3,17.1C22.4,17.2,22.4,17.1,22.3,17.1L22.3,17.1
		L22.3,17.1z"/>
	<path class="st0" d="M18.1,27c-2.5,0-4.5,2-4.5,4.5s2,4.5,4.5,4.5c2.3,0,4.1-1.7,4.4-3.9c0-0.1,0-0.1,0-0.2c0-0.1,0-0.3,0-0.4l0,0
		C22.6,29,20.6,27,18.1,27z M18.1,28.2c0.4,0,0.8,0.1,1.2,0.2c-0.8,0.1-1.6,0.1-2.4,0C17.3,28.3,17.7,28.2,18.1,28.2z M18.1,34.8
		c-1.4,0-2.5-0.8-3-2c1,0.2,2,0.3,3,0.3s2-0.1,3-0.3C20.6,34,19.5,34.8,18.1,34.8z M14.8,31.5c0-0.8,0.3-1.6,0.8-2.1
		c0.8,0.3,1.6,0.4,2.5,0.4c0.8,0,1.7-0.1,2.5-0.4c0.5,0.6,0.8,1.3,0.8,2.1C19.2,32.1,17,32.1,14.8,31.5z"/>
	<path class="st0" d="M32.8,15.3c-0.5,0-1,0.1-1.5,0.4c-0.6-2.2-1.8-4.3-3.5-5.9L29,9.9c0.2,0,0.5-0.1,0.6-0.4
		c1.1-2.8-1-5.6-1.1-5.8c-0.2-0.2-0.5-0.3-0.8-0.2L22.8,6c-0.1-0.3-0.4-0.5-0.7-0.4l-1.3,0.3l0,0c-0.9-0.2-1.8-0.3-2.6-0.3l0,0
		c-1.9-0.2-3.6-1.1-4.9-2.5C13.2,3,13.1,2.8,13,2.6c-0.2-0.6,0.2-1.2,0.8-1.4c0.3-0.1,0.6,0,0.9,0.1l0.4,0.2l0,0
		c0.3,0.2,0.6,0.1,0.8-0.2C16.1,1,16,0.6,15.7,0.5l-0.4-0.2c0,0,0,0-0.1,0c-1.1-0.6-2.6-0.2-3.2,0.9c-0.5,0.9-0.4,2,0.4,2.8
		s1.7,1.5,2.7,2c-0.6,0.1-1.3,0.3-1.9,0.6h-1.1c-0.3,0-0.6,0.2-0.6,0.5c0,0,0,0.1,0,0.3c-3.2,1.8-5.6,4.8-6.6,8.3
		c-0.4-0.3-1-0.4-1.5-0.4c-1.9,0-3.4,1.8-3.4,4.1s1.5,4.1,3.4,4.1c0.5,0,1-0.1,1.5-0.4c1,3.7,3.6,6.8,7,8.6c0.1,3.4,2.8,6.2,6.3,6.2
		c3.4,0,6.2-2.8,6.3-6.2c3.4-1.8,5.9-4.9,7-8.6c0.4,0.3,0.9,0.4,1.5,0.4c1.9,0,3.4-1.8,3.4-4.1S34.7,15.3,32.8,15.3z M27.9,4.8
		c0.7,1.1,1,2.4,0.8,3.8l-4.5-0.3l1.4-0.2c0.1,0,0.2,0,0.3-0.1c0.3-0.2,0.4-0.5,0.3-0.8s-0.5-0.4-0.8-0.3l-2.2,0.3l0,0L27.9,4.8z
		 M22.4,8.8l-1.9,0.5l-0.5-2l2-0.4L22.4,8.8z M18.7,7.9l-2.5,0.6l0,0c-0.3,0.1-0.5,0.4-0.4,0.7c0.1,0.3,0.3,0.5,0.6,0.5h0.1l2.7-0.6
		l-5.3,2.7c-1-0.9-1.1-2.8-1.1-4L18.7,7.9z M23.2,31.5c0,2.8-2.3,5.1-5.1,5.1S13,34.3,13,31.5s2.3-5.1,5.1-5.1S23.2,28.7,23.2,31.5
		L23.2,31.5z M14,26.2c0-1.3,1.9-2.3,4.2-2.3s4.2,1,4.2,2.3c0,0.2,0,0.4-0.1,0.5c-1.1-1-2.5-1.5-4.1-1.5c-1.5,0-3,0.6-4.1,1.5
		C14,26.5,14,26.4,14,26.2z M32.8,22.2c-0.5,0-1-0.2-1.4-0.6c-0.2-0.2-0.4-0.2-0.6-0.2c-0.2,0.1-0.4,0.2-0.4,0.5
		c-0.7,3.6-3,6.6-6.1,8.4c-0.2-1-0.6-1.9-1.2-2.6c0.3-0.4,0.4-0.9,0.4-1.4c0-2-2.4-3.5-5.4-3.5s-5.4,1.5-5.4,3.5
		c0,0.5,0.2,1,0.4,1.4c-0.6,0.8-1,1.7-1.2,2.7c-3.1-1.9-5.3-4.9-6.1-8.5c0-0.2-0.2-0.4-0.4-0.5c-0.2-0.1-0.4,0-0.6,0.2
		c-0.4,0.4-0.9,0.6-1.4,0.6c-1.2,0-2.2-1.3-2.2-2.9c0-1.6,1-2.9,2.2-2.9c0.6,0,1.1,0.3,1.4,0.7c0.2,0.2,0.4,0.2,0.6,0.2
		c0.2-0.1,0.4-0.2,0.4-0.4c0.7-3.4,2.7-6.3,5.6-8.1c0.1,1.4,0.5,3.3,1.9,4.2c0.1,0.1,0.2,0.1,0.3,0.1c0.1,0,0.2,0,0.3-0.1l5.4-2.7
		c0,0.1,0.1,0.3,0.3,0.3c0.1,0.1,0.2,0.1,0.3,0.1s0.1,0,0.1-0.1l3.1-0.8c0.2-0.1,0.3-0.2,0.4-0.4l2.3,0.2c2.3,1.8,3.9,4.4,4.4,7.3
		c0,0.2,0.2,0.4,0.4,0.5s0.4,0,0.6-0.2c0.4-0.4,0.9-0.6,1.4-0.7c1.2,0,2.2,1.3,2.2,2.8C35.1,20.9,34.1,22.2,32.8,22.2z"/>
	<path class="st0" d="M5.3,20.6c-0.3,0-0.6-0.3-0.6-0.6v-1c0-0.3,0.3-0.6,0.6-0.6s0.6,0.3,0.6,0.6l0,0v1C5.9,20.3,5.7,20.6,5.3,20.6
		z"/>
	<path class="st0" d="M31,20.7L31,20.7c-0.4,0-0.6-0.3-0.6-0.6l0,0l0.1-1.2c0-0.3,0.3-0.6,0.7-0.5c0.3,0,0.6,0.3,0.6,0.6l0,0
		l-0.2,1.2C31.6,20.5,31.3,20.7,31,20.7z"/>
</g>
</svg>
