<svg id="_ÎÓÈ_1" data-name="—ÎÓÈ_1" xmlns="http://www.w3.org/2000/svg" viewBox="0 0 67.11 67.11"><defs><style>.cls-1{fill:#1f1844;}.cls-2{fill:#fff;}</style></defs><title>infant-icon-click</title><circle class="cls-1" cx="33.55" cy="33.55" r="33.55"/><path class="cls-2" d="M33.51,43.23a7.79,7.79,0,0,1-2.77-.49.6.6,0,0,1-.35-.77.61.61,0,0,1,.78-.35,7,7,0,0,0,4.75,0,.6.6,0,1,1,.44,1.12A7.73,7.73,0,0,1,33.51,43.23Z"/><path class="cls-2" d="M37.73,41.72a.59.59,0,0,1-.41-.16.6.6,0,0,1,0-.84,1.47,1.47,0,0,0,.42-1c0-1.23-1.92-2.27-4.19-2.27s-4.19,1-4.19,2.27a1.41,1.41,0,0,0,.42,1,.6.6,0,0,1-.9.8,2.62,2.62,0,0,1-.72-1.76c0-2,2.37-3.48,5.39-3.48s5.39,1.53,5.39,3.48a2.65,2.65,0,0,1-.73,1.78A.6.6,0,0,1,37.73,41.72Z"/><path class="cls-2" d="M33.51,51.28A6.29,6.29,0,1,1,39.8,45,6.29,6.29,0,0,1,33.51,51.28Zm0-11.37A5.09,5.09,0,1,0,38.59,45,5.09,5.09,0,0,0,33.51,39.91Z"/><path class="cls-2" d="M33.51,49.49A4.5,4.5,0,1,1,38,45,4.5,4.5,0,0,1,33.51,49.49Zm0-7.79A3.3,3.3,0,1,0,36.81,45,3.3,3.3,0,0,0,33.51,41.7Z"/><path class="cls-2" d="M28.56,32a1.29,1.29,0,1,1,1.29-1.29A1.29,1.29,0,0,1,28.56,32Zm0-1.37a.09.09,0,0,0-.09.08c0,.1.18.1.18,0A.09.09,0,0,0,28.56,30.59Z"/><path class="cls-2" d="M37.67,32A1.29,1.29,0,1,1,39,30.67,1.28,1.28,0,0,1,37.67,32Zm0-1.37a.09.09,0,0,0-.08.08c0,.1.17.1.17,0A.09.09,0,0,0,37.67,30.59Z"/><path class="cls-2" d="M39.21,45.34a.59.59,0,0,1-.54-.34.6.6,0,0,1,.28-.8,12.62,12.62,0,0,0,6.86-8.82.62.62,0,0,1,.42-.45.58.58,0,0,1,.6.16,2,2,0,0,0,1.4.64c1.23,0,2.23-1.29,2.23-2.88S49.46,30,48.23,30a2,2,0,0,0-1.41.66.6.6,0,0,1-.6.16.58.58,0,0,1-.42-.45A12.57,12.57,0,0,0,41.26,23a.59.59,0,0,1-.1-.84.6.6,0,0,1,.84-.11,13.73,13.73,0,0,1,4.75,7.1,3,3,0,0,1,1.48-.4c1.89,0,3.43,1.83,3.43,4.08s-1.54,4.08-3.43,4.08a2.9,2.9,0,0,1-1.46-.39,13.85,13.85,0,0,1-7.3,8.75A.58.58,0,0,1,39.21,45.34Z"/><path class="cls-2" d="M33.51,46.64a13.82,13.82,0,0,1-4-.6.6.6,0,0,1-.39-.75.59.59,0,0,1,.75-.4,12.67,12.67,0,0,0,7.32,0,.61.61,0,0,1,.75.4.59.59,0,0,1-.4.75A13.77,13.77,0,0,1,33.51,46.64Z"/><path class="cls-2" d="M27.78,45.33a.58.58,0,0,1-.26-.06,13.84,13.84,0,0,1-7.26-8.73,2.93,2.93,0,0,1-1.46.39c-1.89,0-3.43-1.83-3.43-4.08s1.54-4.08,3.43-4.08a3,3,0,0,1,1.47.4,13.59,13.59,0,0,1,6.89-8.47A.6.6,0,0,1,28,21a.61.61,0,0,1-.26.81,12.39,12.39,0,0,0-6.48,8.57.6.6,0,0,1-.43.45.61.61,0,0,1-.6-.16A1.92,1.92,0,0,0,18.8,30c-1.23,0-2.23,1.3-2.23,2.88s1,2.88,2.23,2.88a2,2,0,0,0,1.39-.64.59.59,0,0,1,.6-.16.58.58,0,0,1,.42.45A12.67,12.67,0,0,0,28,44.19a.59.59,0,0,1,.28.8A.61.61,0,0,1,27.78,45.33Z"/><path class="cls-2" d="M28.79,21.22a.6.6,0,0,1-.56-.39.59.59,0,0,1,.34-.77,13.66,13.66,0,0,1,4.94-.92,13.39,13.39,0,0,1,2.76.28.59.59,0,0,1,.47.71.61.61,0,0,1-.71.47,12.46,12.46,0,0,0-7,.58A.78.78,0,0,1,28.79,21.22Z"/><path class="cls-2" d="M29.14,26.56a.58.58,0,0,1-.33-.1c-2.32-1.5-1.92-5.73-1.9-5.91a.59.59,0,0,1,.62-.54l7.11.23a.6.6,0,1,1,0,1.2l-6.52-.21c0,1.16.15,3.11,1.13,4l5.37-2.73a.6.6,0,0,1,.8.26.59.59,0,0,1-.26.81l-5.71,2.9A.52.52,0,0,1,29.14,26.56Z"/><path class="cls-2" d="M35.41,24.16a.52.52,0,0,1-.3-.08.58.58,0,0,1-.28-.37L34,20.55a.62.62,0,0,1,.07-.46.6.6,0,0,1,.39-.27l3.13-.69a.6.6,0,0,1,.71.43l.79,3a.6.6,0,0,1-.43.73l-3.11.81A.39.39,0,0,1,35.41,24.16Zm-.08-3.3.51,2,1.95-.51-.5-1.89Z"/><path class="cls-2" d="M44.48,23.3h0l-5.94-.41a.6.6,0,0,1-.56-.64.61.61,0,0,1,.65-.56l5.47.38a5.27,5.27,0,0,0-.81-3.76l-4.81,2.48a.61.61,0,0,1-.81-.26.6.6,0,0,1,.26-.81L43.19,17a.6.6,0,0,1,.75.17c.09.13,2.23,3,1.1,5.77A.62.62,0,0,1,44.48,23.3Z"/><path class="cls-2" d="M31.71,23.2a.6.6,0,0,1-.58-.47.6.6,0,0,1,.45-.72l3.16-.74a.61.61,0,0,1,.72.45.6.6,0,0,1-.45.72l-3.16.74Z"/><path class="cls-2" d="M38.26,22a.6.6,0,0,1-.59-.51.61.61,0,0,1,.5-.69l2.6-.4A.6.6,0,1,1,41,21.53l-2.6.41Z"/><path class="cls-2" d="M33.51,20.34h0a8.87,8.87,0,0,1-5.68-2.82,2.33,2.33,0,0,1-.35-2.77,2.34,2.34,0,0,1,3.24-.87l.38.22a.61.61,0,0,1,.2.83.59.59,0,0,1-.82.2l-.37-.22a1.13,1.13,0,0,0-.88-.12,1.14,1.14,0,0,0-.53,1.9,7.65,7.65,0,0,0,4.9,2.45.6.6,0,0,1-.05,1.2Z"/><path class="cls-2" d="M20.73,34.1a.6.6,0,0,1-.6-.6v-1a.6.6,0,0,1,1.2,0v1A.6.6,0,0,1,20.73,34.1Z"/><path class="cls-2" d="M46.42,34.2h-.05a.6.6,0,0,1-.55-.65l.1-1.22a.61.61,0,0,1,.65-.55.6.6,0,0,1,.55.65L47,33.65A.6.6,0,0,1,46.42,34.2Z"/></svg>