<svg version="1.1" id="logo" xmlns="http://www.w3.org/2000/svg" xmlns:xlink="http://www.w3.org/1999/xlink" x="0px" y="0px" viewBox="0 0 323.6 113.2" style="enable-background:new 0 0 323.6 113.2;" xml:space="preserve">
<style type="text/css" stroke="none" fill="#000000" stroke-width="1px">
	.st0{fill:#FFFFFF;}
</style>
<path id="castle" class="st0" d="M96.9,37.5l3.8,66.5l20.1-9.1L118,44.4L96.9,37.5z M52,37.5L48.2,104l-20.1-9.1l2.8-50.5L52,37.5z
	 M96.7,108.8l-4.6-81.3l4.6-6.6V0h-7v7.1h-5.3V0h-7.1v7.1h-2.5h-3.6V0h-7.1v7.1H59V0h-7v20.9l4.6,6.6L52,108.8
	C52,108.8,73.9,118.6,96.7,108.8z M148.9,93.4l-3.2-56l3.2-4.6V18.5h-4.8v4.9h-3.6v-4.9h-4.9v4.9h-1.7h-2.5v-4.9h-4.9v4.9h-3.6v-4.9
	h-4.8v14.4l3.2,4.6l3.3,57.4C124.6,94.8,133.2,100.2,148.9,93.4z M0,93.4l3.2-56L0,32.9V18.5h4.8v4.9h3.6v-4.9h4.9v4.9H15h2.5v-4.9
	h4.9v4.9H26v-4.9h4.8v14.4l-3.2,4.6l-3.3,57.4C24.3,94.8,15.7,100.2,0,93.4z" stroke="none" fill="#ffffff" stroke-width="1px"></path>
<path id="words" class="st0" d="M187.3,96c-3.5,0-6.7-0.6-9.7-1.7c-2.9-1.2-5.5-2.8-7.6-4.9s-3.8-4.6-5-7.5s-1.8-6.1-1.8-9.6
	c0-3.6,0.6-6.9,1.9-9.7c1.2-2.9,3-5.4,5.1-7.4c2.2-2,4.8-3.6,7.7-4.7s6.2-1.6,9.6-1.6c1.4,0,2.9,0.1,4.5,0.4s3.1,0.7,4.5,1.3
	s2.8,1.3,4.1,2.1s2.4,1.9,3.3,3.1l0.1,0.1l-6.3,5l-0.1-0.1c-1.2-1.6-2.7-2.7-4.6-3.5c-1.9-0.7-3.7-1.1-5.5-1.1
	c-2.3,0-4.4,0.4-6.3,1.3c-1.9,0.8-3.5,2-4.8,3.4c-1.4,1.5-2.4,3.2-3.1,5.1c-0.7,2-1.1,4.1-1.1,6.4c0,2.4,0.4,4.7,1.1,6.6
	c0.7,2,1.7,3.7,3,5.2c1.3,1.4,2.9,2.6,4.7,3.3c1.8,0.8,3.9,1.2,6.2,1.2c2.4,0,4.5-0.5,6.3-1.4s3.3-2.2,4.4-3.7l0.1-0.1l6.6,4.6
	l-0.1,0.1c-2,2.5-4.4,4.4-7.3,5.8C194.5,95.3,191.1,96,187.3,96z M187.7,48.9c1.4,0,2.9,0.1,4.5,0.4s3.1,0.7,4.5,1.3s2.8,1.3,4,2.1
	c1.3,0.8,2.3,1.9,3.2,3l-6.1,4.8c-1.2-1.6-2.7-2.8-4.6-3.5s-3.7-1.1-5.6-1.1c-2.3,0-4.4,0.4-6.3,1.3c-1.9,0.8-3.5,2-4.9,3.5
	s-2.4,3.2-3.2,5.2c-0.7,2-1.1,4.1-1.1,6.4c0,2.4,0.4,4.7,1.1,6.7s1.7,3.8,3.1,5.2c1.3,1.5,2.9,2.6,4.8,3.4c1.9,0.8,3.9,1.2,6.2,1.2
	c2.4,0,4.5-0.5,6.4-1.4s3.3-2.2,4.5-3.8l6.4,4.5c-2,2.5-4.4,4.4-7.3,5.8c-2.9,1.4-6.2,2.1-10,2.1c-3.5,0-6.7-0.6-9.6-1.7
	c-2.9-1.2-5.4-2.8-7.5-4.9s-3.7-4.6-4.9-7.4c-1.2-2.9-1.8-6.1-1.8-9.6c0-3.6,0.6-6.8,1.9-9.7c1.2-2.9,2.9-5.3,5.1-7.4
	c2.2-2,4.7-3.6,7.7-4.7C181,49.4,184.2,48.9,187.7,48.9 M187.7,48.6c-3.5,0-6.7,0.6-9.7,1.7s-5.6,2.7-7.8,4.7s-3.9,4.5-5.2,7.4
	c-1.2,2.9-1.9,6.2-1.9,9.8c0,3.5,0.6,6.8,1.8,9.7s2.9,5.4,5,7.5s4.7,3.8,7.6,4.9c2.9,1.2,6.2,1.8,9.7,1.8c3.8,0,7.3-0.7,10.1-2.1
	c2.9-1.4,5.4-3.3,7.3-5.8l0.2-0.2l-0.2-0.2l-6.4-4.5l-0.2-0.1l-0.1,0.2c-1.1,1.5-2.6,2.8-4.4,3.7s-3.9,1.4-6.3,1.4
	c-2.3,0-4.3-0.4-6.2-1.2c-1.8-0.8-3.4-1.9-4.7-3.3s-2.3-3.1-3-5.1s-1.1-4.2-1.1-6.6c0-2.3,0.4-4.4,1.1-6.4c0.7-1.9,1.8-3.6,3.1-5.1
	c1.3-1.4,3-2.6,4.8-3.4c1.9-0.8,3.9-1.2,6.2-1.2c1.8,0,3.6,0.4,5.5,1.1c1.8,0.7,3.4,1.9,4.5,3.4l0.2,0.2l0.2-0.2l6.1-4.8l0.2-0.2
	l-0.1-0.2c-0.9-1.2-2-2.2-3.3-3.1c-1.3-0.8-2.6-1.6-4.1-2.1c-1.4-0.6-3-1-4.5-1.3C190.6,48.8,189.1,48.6,187.7,48.6L187.7,48.6z
	 M240.4,94.9l-4.2-10.2H217l-4,10.2h-9.2L223.4,50h7l19.4,44.9H240.4z M233.4,77.6l-6.7-17.7l-6.8,17.7H233.4z M230.4,50l19.3,44.7
	h-9.1l-4.2-10.2H217l-4,10.2h-8.9L223.5,50H230.4 M219.7,77.7h13.9l-6.9-18.2L219.7,77.7 M230.5,49.8h-0.2h-6.9h-0.2l-0.1,0.2
	l-19.3,44.6l-0.2,0.3h0.4h8.9h0.2l0.1-0.2l4-10.1h19l4.1,10.1l0.1,0.2h0.2h9.1h0.4l-0.3-0.3L230.5,49.8L230.5,49.8L230.5,49.8z
	 M220.1,77.4l6.6-17.2l6.5,17.2H220.1L220.1,77.4z M277.7,94.9L267.3,76h-5.6v18.9h-8.2V50h15.7c2.1,0,4.2,0.2,6.2,0.7
	c2,0.4,3.8,1.2,5.3,2.2s2.8,2.4,3.7,4c0.9,1.7,1.4,3.7,1.4,6.1c0,3.3-0.9,6-2.8,8c-1.8,2-4.3,3.4-7.4,4.1l12,19.9L277.7,94.9
	L277.7,94.9z M268.1,69.2c1.1,0,2.3-0.1,3.4-0.3c1.1-0.2,2.1-0.5,3-0.9s1.6-1.1,2.2-1.9s0.9-1.9,0.9-3.2c0-1.2-0.3-2.2-0.8-2.9
	c-0.5-0.8-1.2-1.4-2-1.8c-0.8-0.5-1.8-0.8-2.8-0.9c-1.1-0.2-2.1-0.3-3.1-0.3h-7.1v12.3L268.1,69.2L268.1,69.2z M269.2,50
	c2.1,0,4.1,0.2,6.1,0.7c2,0.4,3.7,1.2,5.3,2.2c1.5,1,2.8,2.3,3.7,4c0.9,1.6,1.4,3.6,1.4,6c0,3.2-0.9,5.9-2.7,7.9s-4.3,3.4-7.5,4.1
	l11.9,19.8h-9.6l-10.4-18.9h-5.8v18.9h-8V50H269.2 M261.6,69.3h6.5c1.1,0,2.3-0.1,3.4-0.3c1.1-0.2,2.2-0.5,3.1-0.9
	c0.9-0.5,1.7-1.1,2.2-2c0.6-0.9,0.9-2,0.9-3.3c0-1.2-0.3-2.2-0.8-3s-1.2-1.4-2.1-1.9c-0.8-0.5-1.8-0.8-2.9-0.9
	c-1.1-0.2-2.1-0.3-3.1-0.3h-7.2V69.3 M269.2,49.8h-15.5h-0.2V50v44.7v0.2h0.2h8h0.2v-0.2V76h5.4l10.3,18.8l0.1,0.1h0.1h9.6h0.4
	l-0.2-0.4l-11.8-19.4c3-0.7,5.5-2.1,7.3-4.1c1.9-2.1,2.8-4.8,2.8-8.1c0-2.4-0.5-4.4-1.4-6.1c-0.9-1.7-2.2-3-3.8-4.1
	c-1.6-1-3.4-1.8-5.4-2.2C273.4,50,271.3,49.8,269.2,49.8L269.2,49.8z M261.8,57h6.9c1,0,2,0.1,3.1,0.2c1,0.2,2,0.5,2.8,0.9
	s1.5,1,2,1.8c0.5,0.7,0.8,1.7,0.8,2.9c0,1.3-0.3,2.4-0.8,3.2c-0.6,0.8-1.3,1.5-2.1,1.9c-0.9,0.4-1.9,0.8-3,0.9
	c-1.1,0.2-2.3,0.3-3.4,0.3h-6.3V57L261.8,57z M292.5,94.9v-45h29.9v7.2h-21.7v11.1h20.5v7h-20.5v12.3h22.8v7.4H292.5z M322.2,50v6.9
	h-21.7v11.4H321V75h-20.5v12.6h22.8v7.1h-30.7V50H322.2 M322.5,49.8h-0.2h-29.6h-0.2V50v44.7v0.2h0.2h30.7h0.2v-0.2v-7.1v-0.2h-0.2
	h-22.6V75.3h20.3h0.2v-0.2v-6.7v-0.2h-0.2h-20.3V57.3h21.4h0.2v-0.2v-6.9L322.5,49.8L322.5,49.8z M180.9,41.6L170.3,30v11.6h-3.5
	v-23h3.5v9.9l10-9.9h4.8l-11.2,10.5l11.9,12.5H180.9z M184.8,18.7l-11.1,10.4l11.8,12.4h-4.6l-10.7-11.8h-0.1v11.8h-3.2V18.7h3.2
	v10.1h0.1l10.2-10.1H184.8 M185.5,18.4h-0.7h-4.4h-0.1l-0.1,0.1l-9.8,9.7v-9.5v-0.2h-0.2H167h-0.2v0.2v22.8v0.2h0.2h3.2h0.2v-0.2
	V30.3l10.3,11.4l0.1,0.1h0.1h4.6h0.6l-0.4-0.4l-11.6-12.2L185,18.9L185.5,18.4L185.5,18.4z M188.2,18.6h3.4v23.1h-3.4V18.6z
	 M191.5,18.7v22.8h-3.2V18.7H191.5 M191.8,18.4h-0.2h-3.2h-0.2v0.2v22.8v0.2h0.2h3.2h0.2v-0.2V18.7V18.4L191.8,18.4z M212.3,41.6
	l-12-18.4v18.4h-3.4v-23h4.3l11.8,18v-18h3.5v23H212.3z M216.4,18.7v22.8h-4l-12.1-18.6h-0.1v18.6H197V18.7h4.2L213.1,37h0.1V18.7
	H216.4 M216.6,18.4h-0.2h-3.2H213v0.2v17.5l-11.5-17.6l-0.1-0.1h-0.1h-4.2h-0.3v0.2v22.8v0.2h0.2h3.2h0.2v-0.2V23.6l11.7,18l0.1,0.1
	h0.1h4h0.2v-0.2V18.7L216.6,18.4L216.6,18.4z M232.9,42.2c-1.8,0-3.5-0.3-5-0.9s-2.8-1.4-3.9-2.5s-1.9-2.4-2.5-3.8
	c-0.6-1.5-0.9-3.1-0.9-4.9s0.3-3.5,0.9-4.9c0.6-1.5,1.5-2.8,2.6-3.8s2.4-1.9,3.9-2.5s3.1-0.9,4.9-0.9s3.5,0.3,4.9,0.8
	s2.7,1.3,3.6,2.2l0.1,0.1l-2.4,2.5l-0.1-0.1c-0.7-0.7-1.5-1.3-2.6-1.8c-1-0.4-2.2-0.7-3.5-0.7s-2.5,0.2-3.6,0.7s-2,1.1-2.7,2
	c-0.7,0.8-1.3,1.8-1.7,2.9s-0.6,2.3-0.6,3.5s0.2,2.4,0.6,3.5s1,2.1,1.7,2.9s1.7,1.5,2.7,1.9c1.1,0.5,2.3,0.7,3.6,0.7
	c1.1,0,2.1-0.1,2.9-0.3c0.9-0.2,1.6-0.4,2.3-0.8v-6.2H233v-3h8.5v11.3h-0.1c-1.2,0.6-2.5,1.1-4,1.5C236.2,42,234.6,42.2,232.9,42.2z
	 M232.9,18.1c1.8,0,3.5,0.3,4.9,0.8s2.6,1.3,3.6,2.2l-2.2,2.3c-0.7-0.8-1.6-1.4-2.6-1.8c-1.1-0.5-2.3-0.7-3.6-0.7s-2.5,0.2-3.6,0.7
	s-2,1.1-2.7,2c-0.8,0.8-1.3,1.8-1.7,2.9s-0.6,2.3-0.6,3.5c0,1.3,0.2,2.5,0.6,3.6s1,2.1,1.7,2.9c0.8,0.8,1.7,1.5,2.8,2
	s2.3,0.7,3.7,0.7c1.1,0,2.1-0.1,3-0.3s1.7-0.5,2.4-0.8v-6.4h-5.1V29h8.2v11.1c-1.2,0.6-2.5,1.1-3.9,1.5s-3,0.5-4.6,0.5
	c-1.8,0-3.4-0.3-4.9-0.9s-2.8-1.4-3.9-2.5s-1.9-2.3-2.5-3.8S221,31.8,221,30s0.3-3.4,0.9-4.9s1.5-2.7,2.5-3.8c1.1-1,2.4-1.9,3.9-2.4
	C229.5,18.4,231.1,18.1,232.9,18.1 M232.9,17.8c-1.8,0-3.4,0.3-4.9,0.9s-2.8,1.4-3.9,2.5s-2,2.4-2.6,3.9s-0.9,3.2-0.9,5
	s0.3,3.5,0.9,4.9c0.6,1.5,1.5,2.8,2.6,3.9s2.4,1.9,3.9,2.5s3.2,0.9,5,0.9c1.7,0,3.3-0.2,4.7-0.5s2.8-0.9,4-1.5l0.1-0.1v-0.1V29v-0.2
	h-0.2h-8.2h-0.2V29v2.7v0.2h0.2h4.8v6c-0.6,0.3-1.3,0.6-2.2,0.7c-0.9,0.2-1.9,0.3-2.9,0.3c-1.3,0-2.5-0.2-3.6-0.7s-2-1.1-2.7-1.9
	s-1.3-1.8-1.7-2.8c-0.4-1.1-0.6-2.3-0.6-3.5s0.2-2.4,0.6-3.4c0.4-1.1,1-2,1.7-2.8s1.6-1.5,2.7-1.9c1-0.5,2.2-0.7,3.5-0.7
	s2.4,0.2,3.5,0.7c1,0.4,1.9,1,2.5,1.7l0.2,0.2l0.2-0.2l2.2-2.3l0.2-0.2l-0.2-0.2c-1-0.9-2.2-1.7-3.6-2.2
	C236.4,18.1,234.7,17.8,232.9,17.8L232.9,17.8z M246.7,41.6v-23h8c1.5,0,3,0.2,4.4,0.6c1.5,0.4,2.8,1.1,4,2.1
	c1.2,0.9,2.2,2.1,2.9,3.6s1.1,3.2,1.1,5.2s-0.4,3.7-1.1,5.1s-1.7,2.6-2.9,3.6c-1.2,0.9-2.5,1.7-4,2.1s-3,0.7-4.4,0.7L246.7,41.6
	L246.7,41.6z M254,38.6c1.4,0,2.6-0.2,3.8-0.6c1.2-0.4,2.2-0.9,3-1.7c0.8-0.7,1.5-1.6,1.9-2.7c0.5-1.1,0.7-2.3,0.7-3.6
	c0-1.4-0.2-2.6-0.7-3.7s-1.1-1.9-1.9-2.6s-1.8-1.3-3-1.6c-1.2-0.4-2.4-0.6-3.8-0.6h-3.9v17L254,38.6L254,38.6z M254.6,18.7
	c1.5,0,2.9,0.2,4.4,0.6s2.8,1.1,4,2s2.1,2.1,2.9,3.5c0.7,1.4,1.1,3.2,1.1,5.2s-0.4,3.6-1.1,5.1c-0.7,1.4-1.7,2.6-2.9,3.5
	c-1.2,0.9-2.5,1.6-4,2.1s-2.9,0.7-4.4,0.7h-7.8V18.7H254.6 M250,38.7h4c1.4,0,2.6-0.2,3.8-0.6c1.2-0.4,2.2-0.9,3-1.7
	c0.8-0.7,1.5-1.6,2-2.7s0.7-2.3,0.7-3.6c0-1.4-0.2-2.7-0.7-3.7c-0.5-1.1-1.1-2-2-2.7c-0.8-0.7-1.9-1.3-3-1.6
	c-1.2-0.4-2.4-0.6-3.8-0.6h-4L250,38.7 M254.6,18.4h-7.8h-0.2v0.2v22.8v0.2h0.2h7.8c1.5,0,3-0.2,4.5-0.7s2.8-1.2,4-2.1
	c1.2-1,2.2-2.2,2.9-3.6c0.7-1.5,1.1-3.2,1.1-5.2c0-2.1-0.4-3.8-1.1-5.3s-1.7-2.7-2.9-3.6s-2.6-1.6-4.1-2.1
	C257.6,18.6,256.1,18.4,254.6,18.4L254.6,18.4z M250.2,21.7h3.7c1.3,0,2.6,0.2,3.7,0.6s2.1,0.9,2.9,1.6s1.5,1.6,1.9,2.6
	c0.5,1,0.7,2.3,0.7,3.6c0,1.3-0.2,2.5-0.7,3.5s-1.1,1.9-1.9,2.6s-1.8,1.3-2.9,1.6c-1.1,0.4-2.4,0.6-3.7,0.6h-3.7L250.2,21.7
	L250.2,21.7z M282.1,42.2c-1.7,0-3.4-0.3-4.9-0.9s-2.8-1.4-3.9-2.5s-1.9-2.4-2.5-3.8c-0.6-1.5-0.9-3.1-0.9-4.9s0.3-3.5,0.9-4.9
	c0.6-1.5,1.5-2.8,2.5-3.8c1.1-1,2.4-1.9,3.9-2.5s3.1-0.9,4.9-0.9c1.7,0,3.4,0.3,4.9,0.9s2.8,1.4,3.9,2.5s1.9,2.3,2.6,3.8
	c0.6,1.5,0.9,3.1,0.9,4.9s-0.3,3.4-0.9,4.9s-1.5,2.8-2.6,3.8c-1.1,1.1-2.4,1.9-3.9,2.5C285.5,41.9,283.9,42.2,282.1,42.2z M282.1,21
	c-1.3,0-2.5,0.2-3.5,0.7s-1.9,1.1-2.7,2c-0.7,0.8-1.3,1.8-1.7,2.9c-0.4,1.1-0.6,2.3-0.6,3.5s0.2,2.4,0.6,3.5s1,2.1,1.7,2.9
	s1.6,1.5,2.7,1.9c1,0.5,2.2,0.7,3.5,0.7s2.5-0.2,3.5-0.7c1.1-0.5,2-1.1,2.7-1.9s1.3-1.8,1.7-2.9s0.6-2.3,0.6-3.5s-0.2-2.4-0.6-3.5
	s-1-2.1-1.7-2.9s-1.6-1.5-2.7-2C284.6,21.3,283.4,21,282.1,21z M282.1,18.1c1.7,0,3.4,0.3,4.8,0.9c1.5,0.6,2.8,1.4,3.8,2.4
	c1.1,1,1.9,2.3,2.5,3.8s0.9,3.1,0.9,4.9s-0.3,3.4-0.9,4.9s-1.5,2.7-2.5,3.8c-1.1,1.1-2.4,1.9-3.8,2.5c-1.5,0.6-3.1,0.9-4.8,0.9
	c-1.7,0-3.3-0.3-4.8-0.9s-2.7-1.4-3.8-2.5s-1.9-2.3-2.5-3.8s-0.9-3.1-0.9-4.9s0.3-3.4,0.9-4.9s1.4-2.7,2.5-3.8
	c1.1-1,2.3-1.9,3.8-2.4C278.8,18.4,280.4,18.1,282.1,18.1 M282.1,39.2c1.3,0,2.5-0.2,3.6-0.7s2-1.1,2.7-2c0.8-0.8,1.3-1.8,1.7-2.9
	c0.4-1.1,0.6-2.3,0.6-3.6c0-1.2-0.2-2.4-0.6-3.5s-1-2.1-1.7-2.9c-0.8-0.8-1.7-1.5-2.7-2c-1.1-0.5-2.3-0.7-3.6-0.7
	c-1.3,0-2.5,0.2-3.6,0.7s-2,1.1-2.7,2c-0.7,0.8-1.3,1.8-1.7,2.9s-0.6,2.3-0.6,3.5c0,1.3,0.2,2.5,0.6,3.6s1,2.1,1.7,2.9
	c0.8,0.8,1.7,1.5,2.7,2C279.6,39,280.8,39.2,282.1,39.2 M282.1,17.8c-1.8,0-3.4,0.3-4.9,0.9s-2.8,1.4-3.9,2.5s-2,2.4-2.6,3.9
	s-0.9,3.2-0.9,5s0.3,3.5,0.9,4.9c0.6,1.5,1.5,2.8,2.6,3.9c1.1,1.1,2.4,1.9,3.9,2.5s3.1,0.9,4.9,0.9s3.4-0.3,4.9-0.9s2.8-1.5,3.9-2.5
	c1.1-1.1,2-2.4,2.6-3.9s0.9-3.2,0.9-4.9c0-1.8-0.3-3.5-0.9-5s-1.5-2.8-2.6-3.9s-2.4-1.9-3.9-2.5S283.9,17.8,282.1,17.8L282.1,17.8z
	 M282.1,39c-1.3,0-2.4-0.2-3.4-0.7s-1.9-1.1-2.6-1.9s-1.3-1.8-1.7-2.8c-0.4-1.1-0.6-2.3-0.6-3.5s0.2-2.4,0.6-3.4
	c0.4-1.1,1-2,1.7-2.8s1.6-1.5,2.6-1.9c1-0.5,2.2-0.7,3.5-0.7s2.5,0.2,3.5,0.7s1.9,1.1,2.6,1.9s1.3,1.8,1.7,2.8
	c0.4,1.1,0.6,2.2,0.6,3.4c0,1.2-0.2,2.4-0.6,3.5s-1,2-1.7,2.8s-1.6,1.4-2.7,1.9C284.5,38.7,283.4,39,282.1,39L282.1,39z M318.8,41.6
	V22.9l-7.4,18.7h-2.2l-7.4-18.7v18.7h-3.4v-23h5.2l6.8,17.4l6.7-17.4h5.2v23H318.8z M322.1,18.7v22.8h-3.2V22.4h-0.1l-7.6,19.1h-2
	l-7.5-19.1h-0.1v19.1h-3.1V18.7h5l6.8,17.5h0.1l6.7-17.5H322.1 M322.4,18.4h-0.2h-5H317l-0.1,0.2l-6.5,17l-6.6-17l-0.1-0.2h-0.2h-5
	h-0.2v0.2v22.8v0.2h0.2h3.1h0.2v-0.2V23.6l7.1,18l0.1,0.2h0.2h2h0.2l0.1-0.2l7.2-18v17.9v0.2h0.2h3.2h0.2v-0.2V18.7L322.4,18.4
	L322.4,18.4z" stroke="none" fill="#ffffff" stroke-width="1px"></path>
</svg>