 
<svg version="1.1" id="Layer_1" xmlns="http://www.w3.org/2000/svg" xmlns:xlink="http://www.w3.org/1999/xlink" x="0px" y="0px"
	 viewBox="0 0 185 65" style="enable-background:new 0 0 185 65;" xml:space="preserve">
<style type="text/css">
	.st0{fill:#BCB0C4;enable-background:new    ;}
	.st1{fill:#1F1844;enable-background:new    ;}
</style>
<path id="castle" class="st0" d="M55.4,21.7l2.2,38l11.5-5.2l-1.6-28.9L55.4,21.7z M29.7,21.7l-2.2,38l-11.5-5.2l1.6-28.9L29.7,21.7
	z M55.3,62.4L52.7,16l2.6-3.8V0.2h-4v4.1h-3V0.2h-4.1v4.1h-1.4h-2.1V0.2h-4.1v4.1h-2.9V0.2h-4v11.9l2.6,3.8l-2.6,46.5
	C29.7,62.4,42.2,68,55.3,62.4z M85.1,53.6l-1.8-32l1.8-2.6v-8.2h-2.7v2.8h-2.1v-2.8h-2.8v2.8h-1h-1.4v-2.8h-2.8v2.8h-2.1v-2.8h-2.7
	v8.2l1.8,2.6l1.9,32.8C71.2,54.4,76.1,57.5,85.1,53.6z M0,53.6l1.8-32L0,19.1v-8.2h2.7v2.8h2.1v-2.8h2.8v2.8h1H10v-2.8h2.8v2.8h2.1
	v-2.8h2.7v8.2l-1.8,2.6l-1.9,32.8C13.9,54.4,9,57.5,0,53.6z"/>
<path id="words" class="st1" d="M107.1,55.1c-2,0-3.8-0.3-5.5-1c-1.7-0.7-3.1-1.6-4.3-2.8c-1.2-1.2-2.2-2.6-2.9-4.3
	c-0.7-1.7-1-3.5-1-5.5c0-2.1,0.3-3.9,1.1-5.5c0.7-1.7,1.7-3.1,2.9-4.2c1.3-1.1,2.7-2.1,4.4-2.7c1.7-0.6,3.5-0.9,5.5-0.9
	c0.8,0,1.7,0.1,2.6,0.2c0.9,0.2,1.8,0.4,2.6,0.7c0.8,0.3,1.6,0.7,2.3,1.2c0.7,0.5,1.4,1.1,1.9,1.8l0.1,0.1l-3.6,2.9L113,35
	c-0.7-0.9-1.5-1.5-2.6-2c-1.1-0.4-2.1-0.6-3.1-0.6c-1.3,0-2.5,0.2-3.6,0.7c-1.1,0.5-2,1.1-2.7,1.9c-0.8,0.9-1.4,1.8-1.8,2.9
	c-0.4,1.1-0.6,2.3-0.6,3.7c0,1.4,0.2,2.7,0.6,3.8c0.4,1.1,1,2.1,1.7,3c0.7,0.8,1.7,1.5,2.7,1.9c1,0.5,2.2,0.7,3.5,0.7
	c1.4,0,2.6-0.3,3.6-0.8c1-0.5,1.9-1.3,2.5-2.1l0.1-0.1l3.8,2.6l-0.1,0.1c-1.1,1.4-2.5,2.5-4.2,3.3C111.2,54.7,109.3,55.1,107.1,55.1
	z M107.3,28.2c0.8,0,1.7,0.1,2.6,0.2c0.9,0.2,1.8,0.4,2.6,0.7c0.8,0.3,1.6,0.7,2.3,1.2c0.7,0.5,1.3,1.1,1.8,1.7l-3.5,2.7
	c-0.7-0.9-1.5-1.6-2.6-2c-1.1-0.4-2.1-0.6-3.2-0.6c-1.3,0-2.5,0.2-3.6,0.7c-1.1,0.5-2,1.1-2.8,2s-1.4,1.8-1.8,3
	c-0.4,1.1-0.6,2.3-0.6,3.7c0,1.4,0.2,2.7,0.6,3.8s1,2.2,1.8,3c0.7,0.9,1.7,1.5,2.7,1.9c1.1,0.5,2.2,0.7,3.5,0.7
	c1.4,0,2.6-0.3,3.7-0.8c1.1-0.5,1.9-1.3,2.6-2.2l3.7,2.6c-1.1,1.4-2.5,2.5-4.2,3.3c-1.7,0.8-3.5,1.2-5.7,1.2c-2,0-3.8-0.3-5.5-1
	c-1.7-0.7-3.1-1.6-4.3-2.8c-1.2-1.2-2.1-2.6-2.8-4.2c-0.7-1.7-1-3.5-1-5.5c0-2.1,0.3-3.9,1.1-5.5c0.7-1.7,1.7-3,2.9-4.2
	c1.3-1.1,2.7-2.1,4.4-2.7C103.5,28.5,105.3,28.2,107.3,28.2 M107.3,28c-2,0-3.8,0.3-5.5,1s-3.2,1.5-4.5,2.7c-1.3,1.1-2.2,2.6-3,4.2
	c-0.7,1.7-1.1,3.5-1.1,5.6c0,2,0.3,3.9,1,5.5c0.7,1.7,1.7,3.1,2.9,4.3c1.2,1.2,2.7,2.2,4.3,2.8c1.7,0.7,3.5,1,5.5,1
	c2.2,0,4.2-0.4,5.8-1.2c1.7-0.8,3.1-1.9,4.2-3.3l0.1-0.1l-0.1-0.1l-3.7-2.6l-0.1-0.1l-0.1,0.1c-0.6,0.9-1.5,1.6-2.5,2.1
	c-1,0.5-2.2,0.8-3.6,0.8c-1.3,0-2.5-0.2-3.5-0.7c-1-0.5-1.9-1.1-2.7-1.9c-0.7-0.8-1.3-1.8-1.7-2.9s-0.6-2.4-0.6-3.8
	c0-1.3,0.2-2.5,0.6-3.7c0.4-1.1,1-2.1,1.8-2.9c0.7-0.8,1.7-1.5,2.7-1.9c1.1-0.5,2.2-0.7,3.5-0.7c1,0,2.1,0.2,3.1,0.6
	c1,0.4,1.9,1.1,2.6,1.9l0.1,0.1l0.1-0.1l3.5-2.7l0.1-0.1l-0.1-0.1c-0.5-0.7-1.1-1.3-1.9-1.8c-0.7-0.5-1.5-0.9-2.3-1.2
	c-0.8-0.3-1.7-0.6-2.6-0.7C109,28.1,108.1,28,107.3,28L107.3,28z M137.4,54.5l-2.4-5.8h-11l-2.3,5.8h-5.3l11.2-25.7h4l11.1,25.7
	H137.4z M133.4,44.6l-3.8-10.1l-3.9,10.1H133.4z M131.7,28.8l11,25.6h-5.2l-2.4-5.8h-11.1l-2.3,5.8h-5.1l11.1-25.6H131.7
	 M125.6,44.7h7.9l-3.9-10.4L125.6,44.7 M131.8,28.7h-0.1h-3.9h-0.1l-0.1,0.1l-11,25.5l-0.1,0.2h0.2h5.1h0.1l0.1-0.1l2.3-5.8H135
	l2.3,5.8l0.1,0.1h0.1h5.2h0.2l-0.2-0.2L131.8,28.7L131.8,28.7L131.8,28.7z M125.8,44.5l3.8-9.8l3.7,9.8H125.8L125.8,44.5z
	 M158.8,54.5l-5.9-10.8h-3.2v10.8h-4.7V28.8h9c1.2,0,2.4,0.1,3.5,0.4c1.1,0.2,2.2,0.7,3,1.3s1.6,1.4,2.1,2.3c0.5,1,0.8,2.1,0.8,3.5
	c0,1.9-0.5,3.4-1.6,4.6c-1,1.1-2.5,1.9-4.2,2.3l6.9,11.4L158.8,54.5L158.8,54.5z M153.3,39.8c0.6,0,1.3-0.1,1.9-0.2
	c0.6-0.1,1.2-0.3,1.7-0.5c0.5-0.2,0.9-0.6,1.3-1.1s0.5-1.1,0.5-1.8c0-0.7-0.2-1.3-0.5-1.7c-0.3-0.5-0.7-0.8-1.1-1
	c-0.5-0.3-1-0.5-1.6-0.5c-0.6-0.1-1.2-0.2-1.8-0.2h-4.1v7L153.3,39.8L153.3,39.8z M153.9,28.8c1.2,0,2.3,0.1,3.5,0.4
	c1.1,0.2,2.1,0.7,3,1.3c0.9,0.6,1.6,1.3,2.1,2.3c0.5,0.9,0.8,2.1,0.8,3.4c0,1.8-0.5,3.4-1.5,4.5c-1,1.1-2.5,1.9-4.3,2.3l6.8,11.3
	h-5.5l-5.9-10.8h-3.3v10.8H145V28.8H153.9 M149.6,39.9h3.7c0.6,0,1.3-0.1,1.9-0.2c0.6-0.1,1.3-0.3,1.8-0.5c0.5-0.3,1-0.6,1.3-1.1
	c0.3-0.5,0.5-1.1,0.5-1.9c0-0.7-0.2-1.3-0.5-1.7c-0.3-0.5-0.7-0.8-1.2-1.1c-0.5-0.3-1-0.5-1.7-0.5c-0.6-0.1-1.2-0.2-1.8-0.2h-4.1
	V39.9 M153.9,28.7H145h-0.1v0.1v25.6v0.1h0.1h4.6h0.1v-0.1V43.7h3.1l5.9,10.7l0.1,0.1h0.1h5.5h0.2l-0.1-0.2l-6.7-11.1
	c1.7-0.4,3.1-1.2,4.2-2.3c1.1-1.2,1.6-2.7,1.6-4.6c0-1.4-0.3-2.5-0.8-3.5c-0.5-1-1.3-1.7-2.2-2.3c-0.9-0.6-1.9-1-3.1-1.3
	C156.3,28.8,155.1,28.7,153.9,28.7L153.9,28.7z M149.7,32.8h3.9c0.6,0,1.1,0.1,1.8,0.1c0.6,0.1,1.1,0.3,1.6,0.5
	c0.5,0.2,0.9,0.6,1.1,1c0.3,0.4,0.5,1,0.5,1.7c0,0.7-0.2,1.4-0.5,1.8c-0.3,0.5-0.7,0.9-1.2,1.1c-0.5,0.2-1.1,0.5-1.7,0.5
	c-0.6,0.1-1.3,0.2-1.9,0.2h-3.6V32.8L149.7,32.8z M167.2,54.5V28.8h17.1v4.1h-12.4v6.3h11.7v4h-11.7v7h13v4.2
	C184.9,54.5,167.2,54.5,167.2,54.5z M184.2,28.8v3.9h-12.4v6.5h11.7v3.8h-11.7v7.2h13v4.1h-17.6V28.8H184.2 M184.4,28.7h-0.1h-16.9
	h-0.1v0.1v25.6v0.1h0.1h17.6h0.1v-0.1v-4.1v-0.1h-0.1H172v-6.9h11.6h0.1v-0.1v-3.8v-0.1h-0.1H172V33h12.2h0.1v-0.1v-3.9L184.4,28.7
	L184.4,28.7z M103.4,24l-6.1-6.6V24h-2V10.9h2v5.7l5.7-5.7h2.7l-6.4,6l6.8,7.1H103.4z M105.6,10.9l-6.3,5.9L106,24h-2.6l-6.1-6.7
	h-0.1V24h-1.8v-13h1.8v5.8h0.1l5.8-5.8H105.6 M106,10.8h-0.4h-2.5h-0.1l-0.1,0.1l-5.6,5.5v-5.4v-0.1h-0.1h-1.8h-0.1v0.1v13v0.1h0.1
	h1.8h0.1V24v-6.4l5.9,6.5l0.1,0.1h0.1h2.6h0.3l-0.2-0.2l-6.6-7l6.2-5.9L106,10.8L106,10.8z M107.6,10.9h1.9v13.2h-1.9V10.9z
	 M109.5,10.9v13h-1.8v-13H109.5 M109.7,10.8h-0.1h-1.8h-0.1v0.1v13V24h0.1h1.8h0.1v-0.1v-13V10.8L109.7,10.8z M121.4,24l-6.9-10.5
	V24h-1.9V10.9h2.5l6.7,10.3V10.9h2V24H121.4z M123.7,10.9v13h-2.3l-6.9-10.6h-0.1V24h-1.8v-13h2.4l6.8,10.5h0.1V10.9H123.7
	 M123.8,10.8h-0.1h-1.8h-0.1v0.1v10l-6.6-10.1l-0.1-0.1h-0.1h-2.4h-0.2v0.1v13V24h0.1h1.8h0.1v-0.1V13.7l6.7,10.3l0.1,0.1h0.1h2.3
	h0.1V24v-13L123.8,10.8L123.8,10.8z M133.1,24.4c-1,0-2-0.2-2.9-0.5c-0.9-0.3-1.6-0.8-2.2-1.4c-0.6-0.6-1.1-1.4-1.4-2.2
	c-0.3-0.9-0.5-1.8-0.5-2.8s0.2-2,0.5-2.8c0.3-0.9,0.9-1.6,1.5-2.2c0.6-0.6,1.4-1.1,2.2-1.4c0.9-0.3,1.8-0.5,2.8-0.5s2,0.2,2.8,0.5
	c0.8,0.3,1.5,0.7,2.1,1.3l0.1,0.1l-1.4,1.4l-0.1-0.1c-0.4-0.4-0.9-0.7-1.5-1c-0.6-0.2-1.3-0.4-2-0.4c-0.7,0-1.4,0.1-2.1,0.4
	c-0.6,0.3-1.1,0.6-1.5,1.1c-0.4,0.5-0.7,1-1,1.7s-0.3,1.3-0.3,2c0,0.7,0.1,1.4,0.3,2c0.2,0.6,0.6,1.2,1,1.7c0.4,0.5,1,0.9,1.5,1.1
	c0.6,0.3,1.3,0.4,2.1,0.4c0.6,0,1.2-0.1,1.7-0.2c0.5-0.1,0.9-0.2,1.3-0.5v-3.5h-2.9v-1.7h4.9v6.5H138c-0.7,0.3-1.4,0.6-2.3,0.9
	C135,24.3,134.1,24.4,133.1,24.4z M133.1,10.6c1,0,2,0.2,2.8,0.5c0.8,0.3,1.5,0.7,2.1,1.3l-1.3,1.3c-0.4-0.5-0.9-0.8-1.5-1
	c-0.6-0.3-1.3-0.4-2.1-0.4c-0.7,0-1.4,0.1-2.1,0.4c-0.6,0.3-1.1,0.6-1.5,1.1c-0.5,0.5-0.7,1-1,1.7c-0.2,0.6-0.3,1.3-0.3,2
	c0,0.7,0.1,1.4,0.3,2.1c0.2,0.6,0.6,1.2,1,1.7c0.5,0.5,1,0.9,1.6,1.1c0.6,0.3,1.3,0.4,2.1,0.4c0.6,0,1.2-0.1,1.7-0.2s1-0.3,1.4-0.5
	v-3.7h-2.9v-1.5h4.7v6.3c-0.7,0.3-1.4,0.6-2.2,0.9c-0.8,0.2-1.7,0.3-2.6,0.3c-1,0-1.9-0.2-2.8-0.5s-1.6-0.8-2.2-1.4
	s-1.1-1.3-1.4-2.2c-0.3-0.9-0.5-1.8-0.5-2.8c0-1,0.2-1.9,0.5-2.8s0.9-1.5,1.4-2.2c0.6-0.6,1.4-1.1,2.2-1.4
	C131.2,10.8,132.1,10.6,133.1,10.6 M133.1,10.4c-1,0-1.9,0.2-2.8,0.5c-0.9,0.3-1.6,0.8-2.2,1.4c-0.6,0.6-1.1,1.4-1.5,2.2
	s-0.5,1.8-0.5,2.9c0,1,0.2,2,0.5,2.8c0.3,0.9,0.9,1.6,1.5,2.2c0.6,0.6,1.4,1.1,2.2,1.4c0.9,0.3,1.8,0.5,2.9,0.5c1,0,1.9-0.1,2.7-0.3
	c0.8-0.2,1.6-0.5,2.3-0.9l0.1-0.1v-0.1v-6.3v-0.1h-0.1h-4.7h-0.1v0.1v1.5v0.1h0.1h2.7v3.4c-0.3,0.2-0.7,0.3-1.3,0.4
	c-0.5,0.1-1.1,0.2-1.7,0.2c-0.7,0-1.4-0.1-2.1-0.4c-0.6-0.3-1.1-0.6-1.5-1.1c-0.4-0.5-0.7-1-1-1.6c-0.2-0.6-0.3-1.3-0.3-2
	c0-0.7,0.1-1.4,0.3-1.9c0.2-0.6,0.6-1.1,1-1.6c0.4-0.5,0.9-0.9,1.5-1.1c0.6-0.3,1.3-0.4,2-0.4c0.7,0,1.4,0.1,2,0.4
	c0.6,0.2,1.1,0.6,1.4,1l0.1,0.1l0.1-0.1l1.3-1.3l0.1-0.1l-0.1-0.1c-0.6-0.5-1.3-1-2.1-1.3C135.1,10.6,134.2,10.4,133.1,10.4
	L133.1,10.4z M141,24V10.9h4.6c0.9,0,1.7,0.1,2.5,0.3c0.9,0.2,1.6,0.6,2.3,1.2c0.7,0.5,1.3,1.2,1.7,2.1s0.6,1.8,0.6,3
	c0,1.1-0.2,2.1-0.6,2.9s-1,1.5-1.7,2.1c-0.7,0.5-1.4,1-2.3,1.2c-0.9,0.2-1.7,0.4-2.5,0.4L141,24L141,24z M145.2,22.3
	c0.8,0,1.5-0.1,2.2-0.3c0.7-0.2,1.3-0.5,1.7-1c0.5-0.4,0.9-0.9,1.1-1.5c0.3-0.6,0.4-1.3,0.4-2.1c0-0.8-0.1-1.5-0.4-2.1
	c-0.3-0.6-0.6-1.1-1.1-1.5s-1-0.7-1.7-0.9c-0.7-0.2-1.4-0.3-2.2-0.3H143v9.7L145.2,22.3L145.2,22.3z M145.6,10.9
	c0.9,0,1.7,0.1,2.5,0.3s1.6,0.6,2.3,1.1s1.2,1.2,1.7,2c0.4,0.8,0.6,1.8,0.6,3c0,1.1-0.2,2.1-0.6,2.9c-0.4,0.8-1,1.5-1.7,2
	c-0.7,0.5-1.4,0.9-2.3,1.2s-1.7,0.4-2.5,0.4h-4.5v-13H145.6 M142.9,22.4h2.3c0.8,0,1.5-0.1,2.2-0.3c0.7-0.2,1.3-0.5,1.7-1
	c0.5-0.4,0.9-0.9,1.1-1.5s0.4-1.3,0.4-2.1c0-0.8-0.1-1.5-0.4-2.1c-0.3-0.6-0.6-1.1-1.1-1.5c-0.5-0.4-1.1-0.7-1.7-0.9
	c-0.7-0.2-1.4-0.3-2.2-0.3h-2.3V22.4 M145.6,10.8h-4.5H141v0.1v13V24h0.1h4.5c0.9,0,1.7-0.1,2.6-0.4c0.9-0.3,1.6-0.7,2.3-1.2
	c0.7-0.6,1.3-1.3,1.7-2.1c0.4-0.9,0.6-1.8,0.6-3c0-1.2-0.2-2.2-0.6-3s-1-1.5-1.7-2.1s-1.5-0.9-2.3-1.2
	C147.3,10.9,146.4,10.8,145.6,10.8L145.6,10.8z M143,12.6h2.1c0.7,0,1.5,0.1,2.1,0.3s1.2,0.5,1.7,0.9c0.5,0.4,0.9,0.9,1.1,1.5
	c0.3,0.6,0.4,1.3,0.4,2.1c0,0.7-0.1,1.4-0.4,2c-0.3,0.6-0.6,1.1-1.1,1.5c-0.5,0.4-1,0.7-1.7,0.9c-0.6,0.2-1.4,0.3-2.1,0.3H143
	L143,12.6L143,12.6z M161.3,24.4c-1,0-1.9-0.2-2.8-0.5c-0.9-0.3-1.6-0.8-2.2-1.4c-0.6-0.6-1.1-1.4-1.4-2.2c-0.3-0.9-0.5-1.8-0.5-2.8
	s0.2-2,0.5-2.8c0.3-0.9,0.9-1.6,1.4-2.2c0.6-0.6,1.4-1.1,2.2-1.4c0.9-0.3,1.8-0.5,2.8-0.5c1,0,1.9,0.2,2.8,0.5
	c0.9,0.3,1.6,0.8,2.2,1.4c0.6,0.6,1.1,1.3,1.5,2.2c0.3,0.9,0.5,1.8,0.5,2.8s-0.2,1.9-0.5,2.8s-0.9,1.6-1.5,2.2
	c-0.6,0.6-1.4,1.1-2.2,1.4C163.2,24.2,162.3,24.4,161.3,24.4z M161.3,12.2c-0.7,0-1.4,0.1-2,0.4c-0.6,0.3-1.1,0.6-1.5,1.1
	c-0.4,0.5-0.7,1-1,1.7c-0.2,0.6-0.3,1.3-0.3,2s0.1,1.4,0.3,2c0.2,0.6,0.6,1.2,1,1.7c0.4,0.5,0.9,0.9,1.5,1.1c0.6,0.3,1.3,0.4,2,0.4
	s1.4-0.1,2-0.4c0.6-0.3,1.1-0.6,1.5-1.1c0.4-0.5,0.7-1,1-1.7c0.2-0.6,0.3-1.3,0.3-2c0-0.7-0.1-1.4-0.3-2c-0.2-0.6-0.6-1.2-1-1.7
	c-0.4-0.5-0.9-0.9-1.5-1.1C162.7,12.4,162,12.2,161.3,12.2z M161.3,10.6c1,0,1.9,0.2,2.7,0.5c0.9,0.3,1.6,0.8,2.2,1.4
	c0.6,0.6,1.1,1.3,1.4,2.2c0.3,0.9,0.5,1.8,0.5,2.8c0,1-0.2,1.9-0.5,2.8c-0.3,0.9-0.9,1.5-1.4,2.2c-0.6,0.6-1.4,1.1-2.2,1.4
	c-0.9,0.3-1.8,0.5-2.7,0.5s-1.9-0.2-2.7-0.5c-0.9-0.3-1.5-0.8-2.2-1.4s-1.1-1.3-1.4-2.2s-0.5-1.8-0.5-2.8s0.2-1.9,0.5-2.8
	s0.8-1.5,1.4-2.2c0.6-0.6,1.3-1.1,2.2-1.4C159.4,10.8,160.3,10.6,161.3,10.6 M161.3,22.7c0.7,0,1.4-0.1,2.1-0.4
	c0.6-0.3,1.1-0.6,1.5-1.1c0.5-0.5,0.7-1,1-1.7c0.2-0.6,0.3-1.3,0.3-2.1c0-0.7-0.1-1.4-0.3-2c-0.2-0.6-0.6-1.2-1-1.7
	c-0.5-0.5-1-0.9-1.5-1.1c-0.6-0.3-1.3-0.4-2.1-0.4c-0.7,0-1.4,0.1-2.1,0.4c-0.6,0.3-1.1,0.6-1.5,1.1c-0.4,0.5-0.7,1-1,1.7
	c-0.2,0.6-0.3,1.3-0.3,2c0,0.7,0.1,1.4,0.3,2.1c0.2,0.6,0.6,1.2,1,1.7c0.5,0.5,1,0.9,1.5,1.1C159.8,22.5,160.5,22.7,161.3,22.7
	 M161.3,10.4c-1,0-1.9,0.2-2.8,0.5c-0.9,0.3-1.6,0.8-2.2,1.4c-0.6,0.6-1.1,1.4-1.5,2.2s-0.5,1.8-0.5,2.9c0,1,0.2,2,0.5,2.8
	c0.3,0.9,0.9,1.6,1.5,2.2c0.6,0.6,1.4,1.1,2.2,1.4c0.9,0.3,1.8,0.5,2.8,0.5s1.9-0.2,2.8-0.5s1.6-0.9,2.2-1.4
	c0.6-0.6,1.1-1.4,1.5-2.2s0.5-1.8,0.5-2.8c0-1-0.2-2-0.5-2.9s-0.9-1.6-1.5-2.2c-0.6-0.6-1.4-1.1-2.2-1.4
	C163.2,10.6,162.3,10.4,161.3,10.4L161.3,10.4z M161.3,22.5c-0.7,0-1.4-0.1-1.9-0.4c-0.6-0.3-1.1-0.6-1.5-1.1c-0.4-0.5-0.7-1-1-1.6
	c-0.2-0.6-0.3-1.3-0.3-2c0-0.7,0.1-1.4,0.3-1.9c0.2-0.6,0.6-1.1,1-1.6c0.4-0.5,0.9-0.9,1.5-1.1c0.6-0.3,1.3-0.4,2-0.4s1.4,0.1,2,0.4
	c0.6,0.3,1.1,0.6,1.5,1.1c0.4,0.5,0.7,1,1,1.6c0.2,0.6,0.3,1.3,0.3,1.9c0,0.7-0.1,1.4-0.3,2c-0.2,0.6-0.6,1.1-1,1.6
	c-0.4,0.5-0.9,0.8-1.5,1.1C162.6,22.4,162,22.5,161.3,22.5L161.3,22.5z M182.3,24V13.3L178,24h-1.3l-4.2-10.7V24h-1.9V10.9h3
	l3.9,9.9l3.8-9.9h3V24H182.3z M184.1,10.9v13h-1.8V13h-0.1L177.9,24h-1.1L172.5,13h-0.1V24h-1.8v-13h2.9l3.9,10h0.1l3.8-10H184.1
	 M184.3,10.8h-0.1h-2.9h-0.1l-0.1,0.1l-3.7,9.7l-3.8-9.7l-0.1-0.1h-0.1h-2.9h-0.1v0.1v13V24h0.1h1.8h0.1v-0.1V13.7l4.1,10.3l0.1,0.1
	h0.1h1.1h0.1l0.1-0.1l4.1-10.3V24v0.1h0.1h1.8h0.1V24v-13L184.3,10.8L184.3,10.8z"/>
</svg>
