<svg xmlns="http://www.w3.org/2000/svg" viewBox="0 0 213 211"><defs><style>.a{fill:#eeebf0;}.b{fill:#fff;fill-rule:evenodd;}</style></defs><title>no-pic</title><rect class="a" x="-12.5" y="-4.5" width="234.36" height="223"/><path class="b" d="M105.69,24C70.75,24,47.5,58,80,118c11,20.25-11.86,25-35,30.37-21.13,4.88-21.91,15.37-21.84,33.71l0,6.88h164.9l0-6.66c.08-18.48-.64-29-21.84-33.93-23.63-5.45-45.63-10.24-35-30.37,32.44-61.26,8.6-94-25.64-94m0,6.88c13,0,23.3,5.25,29,14.77,9.31,15.48,6,40-9.47,69.16-4,7.5-4.62,14.28-1.94,20.15,6.44,14.09,32.71,18.09,41.46,20.13,15.83,3.67,16.58,9,16.51,27H30.07c-.07-18,.62-23.34,16.51-27,8-1.83,35.32-6.32,41.58-20.21,2.66-5.9,2-12.67-2.09-20.13C70.73,86.47,67.21,61.39,76.41,45.93c5.78-9.7,16.18-15,29.28-15"/></svg>