 
<svg version="1.1" id="Layer_1" xmlns="http://www.w3.org/2000/svg" xmlns:xlink="http://www.w3.org/1999/xlink" x="0px" y="0px"
	 viewBox="0 0 40 40" style="enable-background:new 0 0 40 40;" xml:space="preserve">
<style type="text/css">
	.st0{fill-rule:evenodd;clip-rule:evenodd;fill:#1F1844;}
	.st1{fill-rule:evenodd;clip-rule:evenodd;fill:#FFFFFF;}
</style>
<circle class="st0" cx="20" cy="20" r="20"/>
<path class="st1" d="M9,28v-2.9c2-0.7,2.6-2.2,3.7-6.1c0.9-3.2,1.9-6.8,4.9-8c0-0.1,0-0.3,0-0.5C17.5,9.1,18.6,8,20,8
	s2.5,1.1,2.5,2.5c0,0.2,0,0.3,0,0.5c3,1.2,4,4.8,4.9,8c1.1,4,1.7,5.4,3.7,6.1V28h-7c0,2.2-1.8,4-4,4s-4-1.8-4-4C16,28,9,28,9,28z
	 M23,28h-6c0,1.7,1.3,3,3,3S23,29.7,23,28z M10,27h20v-1.2c-2.1-0.9-2.8-3.6-3.6-6.5c-1.1-3.8-2.2-7.8-6.4-7.8
	c-4.2,0-5.3,3.9-6.4,7.7c-0.8,2.9-1.6,5.6-3.6,6.5V27z M21.5,10.7l0-0.2C21.5,9.7,20.8,9,20,9s-1.5,0.7-1.5,1.5l0,0.2
	c0.5-0.1,0.9-0.2,1.5-0.2C20.5,10.5,21,10.6,21.5,10.7z"/>
</svg>
