<svg id="Layer_1" data-name="Layer 1" xmlns="http://www.w3.org/2000/svg" viewBox="0 0 24.12 24"><defs><style>.cls-1{fill:#f4ba46;fill-rule:evenodd;}</style></defs><title>rate</title><path class="cls-1" d="M4.94,19.41A10.5,10.5,0,1,1,19.18,4.59,10.5,10.5,0,1,1,5,19.42ZM13.62,4a9.5,9.5,0,1,1-9.5,9.5A9.51,9.51,0,0,1,13.62,4Zm.5,15h-1v-.87a2.74,2.74,0,0,1-2.6-2.74h1.09c0,.4.16,1.77,2.18,1.77a2.36,2.36,0,0,0,1.46-.42,1.24,1.24,0,0,0,.53-1c0-.79-.51-1.37-2.07-1.72-2.37-.53-2.92-1.39-2.92-2.53A2.5,2.5,0,0,1,13.1,9.05V8h1V9a2.68,2.68,0,0,1,2.7,2.77h-1.1a1.8,1.8,0,0,0-2-1.77c-1.08,0-1.85.53-1.85,1.41s.44,1.16,2,1.55c1.88.48,3,1.1,3,2.68,0,1.75-1.51,2.4-2.74,2.5V19ZM17,3.55A9.5,9.5,0,0,0,3.81,17.24h0A10.51,10.51,0,0,1,13.62,3,10.32,10.32,0,0,1,17,3.55Z"/></svg>