<svg xmlns="http://www.w3.org/2000/svg" viewBox="0 0 24 24"><defs><style>.a,.b{fill:#302852;}.a{fill-rule:evenodd;}</style></defs><title>re-pay</title><path class="a" d="M7,9H0V2H1V7.2A12,12,0,1,1,0,13H1a11,11,0,1,0,.71-5H7V9Z"/><path class="b" d="M8.74,15.19c.25-.29.45-.7.77-.43a4.2,4.2,0,0,0,2.16,1.13v-4C10.05,11.29,9,10.61,8.81,9.24a2.41,2.41,0,0,1,0-.55A2.91,2.91,0,0,1,11.67,6V5.5A.3.3,0,0,1,12,5.21h.11a.28.28,0,0,1,.27.29V6a5.24,5.24,0,0,1,2.28.76.34.34,0,0,1,.1.52c-.26.4-.35.64-.72.43A4.83,4.83,0,0,0,12.34,7l0,3.94c1.85.79,3,1.57,3,3.23a3,3,0,0,1-3,2.73v1.58a.33.33,0,0,1-.65,0V16.93a5,5,0,0,1-2.83-1.22A.33.33,0,0,1,8.74,15.19ZM11.67,7A1.79,1.79,0,0,0,9.9,8.67c0,.95.66,1.52,1.77,2Zm2.45,7.24c0-.86-.61-1.44-1.8-2v3.67A1.84,1.84,0,0,0,14.12,14.25Z"/></svg>