 
<svg version="1.1" id="Layer_1" xmlns="http://www.w3.org/2000/svg" xmlns:xlink="http://www.w3.org/1999/xlink" x="0px" y="0px"
	 viewBox="0 0 92 68" style="enable-background:new 0 0 92 68;" xml:space="preserve">
<style type="text/css">
	.st0{fill:#BCB0C4;enable-background:new    ;}
	.st1{fill:none;stroke:#1F1844;stroke-width:3;stroke-linejoin:round;stroke-miterlimit:10;}
	.st2{fill:#1F1844;enable-background:new    ;}
</style>
<path class="st0" d="M50.6,6C27.3,6,8.5,19.9,8.5,37c0,6.5,2.8,12.6,7.4,17.6l0,0L13.7,66l12.9-3.5l2.9,1.3
	c6.2,2.7,13.4,4.2,21.1,4.2C73.8,68,92,54.1,92,37C92,19.9,73.8,6,50.6,6z"/>
<path class="st1" d="M46.1,1.8C21.8,1.8,2,15.6,2,32.7c0,6.5,2.9,12.6,7.8,17.6l0,0L7.1,63.7L24,59.5l0,0c6.5,2.7,14.1,4.2,22.2,4.2
	c24.4,0,44.1-13.9,44.1-31C90.3,15.6,70.5,1.8,46.1,1.8z"/>
<circle class="st2" cx="30.1" cy="32.7" r="5.2"/>
<circle class="st2" cx="43.1" cy="32.7" r="5.2"/>
<circle class="st2" cx="56.1" cy="32.7" r="5.2"/>
</svg>
