<svg id="_ÎÓÈ_1" data-name="—ÎÓÈ_1" xmlns="http://www.w3.org/2000/svg" viewBox="0 0 68.31 68.31"><defs><style>.cls-1{fill:#1f1844;}.cls-2{fill:#fff;}</style></defs><title>toddler-icon-click</title><circle class="cls-1" cx="34.15" cy="34.15" r="34.15"/><path class="cls-2" d="M48.49,44.22a2,2,0,1,0-2-2A2,2,0,0,0,48.49,44.22Zm0-2.8a.79.79,0,0,1,0,1.58.79.79,0,0,1,0-1.58Z"/><path class="cls-2" d="M50,24h-.93a5.63,5.63,0,0,0-3.22,1,4.34,4.34,0,0,1-2.51.79H41.76a2.07,2.07,0,1,0,0,4.13h3.32a1.85,1.85,0,0,1-.25.32c-.66.67-1.74,2-2.36,2.73a20.13,20.13,0,0,0-13.28-7.1.6.6,0,0,1-.52-.62l.09-1.77a1.36,1.36,0,0,1,.76-1.16,1.35,1.35,0,0,0,.76.25l.2,0,4.62-.7A2.09,2.09,0,0,0,36.52,21a2.13,2.13,0,0,0-2-3.36l-4.73.69a1.4,1.4,0,0,0-.9.55s-.05.1-.08.16a4.82,4.82,0,0,0-3.41,4.4l-.15,3H23.79a3,3,0,0,0-2.72-1.78H19.78a.61.61,0,0,0-.61.61v.43a2.09,2.09,0,0,0-1.28,1.92,2.06,2.06,0,0,0,1.28,1.92v.44a.61.61,0,0,0,.61.61h1.29a3,3,0,0,0,2.72-1.78H25.1L25,31.22a8.95,8.95,0,1,0,3.38.16l0-.79a.6.6,0,0,1,.22-.43.59.59,0,0,1,.45-.13c2.76.37,9.46,1.92,12.08,8.47a3.22,3.22,0,0,0,1.59,1.72,6,6,0,0,0-.34,2,6.08,6.08,0,1,0,2.68-5,.51.51,0,0,1-.37-.34.69.69,0,0,1,.08-.65,43.71,43.71,0,0,1,3.22-4A3.68,3.68,0,0,0,49.1,30H50A3,3,0,0,0,50,24ZM33,19.14,33.24,21l-1.09.16-.34-1.8Zm1.71-.25h.13a.9.9,0,0,1,.89.75.88.88,0,0,1-.15.69.86.86,0,0,1-.61.37l-.47.08L34.16,19Zm-4.8.73a.15.15,0,0,1,.06,0l.68-.1.34,1.81-.65.1h0a.11.11,0,0,1-.1-.08l-.34-1.61A.11.11,0,0,1,29.86,19.62ZM20.39,26h.68a1.75,1.75,0,0,1,0,3.49h-.68Zm-1.22,1.43V28a.78.78,0,0,1-.06-.31A.81.81,0,0,1,19.17,27.39Zm8.76,12.88L28,38.52a2.34,2.34,0,1,1-4.1,1.55,2.33,2.33,0,0,1,.74-1.7l-.08,1.74A1.66,1.66,0,0,0,25,41.35a1.68,1.68,0,0,0,2.89-1.08Zm6.06-.2a7.73,7.73,0,1,1-9-7.61l-.21,4.4A3.56,3.56,0,1,0,28.1,37l.21-4.4A7.72,7.72,0,0,1,34,40.07Zm19.35,2.14a4.86,4.86,0,1,1-4.85-4.85A4.86,4.86,0,0,1,53.34,42.21ZM47.16,31.35a43,43,0,0,0-3.34,4.11,1.92,1.92,0,0,0-.25,1.81,1.83,1.83,0,0,0,.53.74,6,6,0,0,0-.83,1.11,2,2,0,0,1-1-1.07c-2.86-7.15-10.09-8.84-13.06-9.23a1.82,1.82,0,0,0-1.4.4,1.87,1.87,0,0,0-.65,1.31l-.48,9.68a.46.46,0,0,1-.45.44.41.41,0,0,1-.33-.15.42.42,0,0,1-.13-.33l.78-16.64a3.64,3.64,0,0,1,2-3.08l.24.9a2.57,2.57,0,0,0-1.29,2.12l-.09,1.77a1.82,1.82,0,0,0,1.61,1.9A18.84,18.84,0,0,1,42,34.37a.61.61,0,0,0,.48.24.58.58,0,0,0,.49-.23s1.83-2.31,2.75-3.22A3,3,0,0,0,46.41,30h1.46A2.52,2.52,0,0,1,47.16,31.35ZM50,28.74H41.76a.84.84,0,1,1,0-1.68h1.62a5.67,5.67,0,0,0,3.21-1,4.4,4.4,0,0,1,2.52-.79H50a1.74,1.74,0,1,1,0,3.47Z"/><path class="cls-2" d="M17,26.52h.14a.59.59,0,0,0,.59-.46.61.61,0,0,0-.45-.74L16,25a.61.61,0,0,0-.28,1.19Z"/><path class="cls-2" d="M14.88,28a.62.62,0,0,0,.61.62h1.32a.62.62,0,1,0,0-1.23H15.49A.62.62,0,0,0,14.88,28Z"/><path class="cls-2" d="M16.39,31.13a.62.62,0,0,0,.32-.09l1.11-.69a.61.61,0,0,0-.64-1L16.07,30a.6.6,0,0,0-.2.84A.64.64,0,0,0,16.39,31.13Z"/></svg>