<?xml version="1.0" encoding="utf-8"?>
<!-- Generator: Adobe Illustrator 23.0.6, SVG Export Plug-In . SVG Version: 6.00 Build 0)  -->
<svg version="1.1" id="_ÎÓÈ_1" xmlns="http://www.w3.org/2000/svg" xmlns:xlink="http://www.w3.org/1999/xlink" x="0px" y="0px"
	 viewBox="0 0 41 31.4" style="enable-background:new 0 0 41 31.4;" xml:space="preserve">
<style type="text/css">
	.st0{fill:#FFFFFF;}
</style>
<title>toddler-icon</title>
<path class="st0" d="M34.9,26.6c1.1,0,2-0.9,2-2s-0.9-2-2-2s-2,0.9-2,2S33.8,26.6,34.9,26.6z M34.9,23.8c0.4,0,0.8,0.4,0.8,0.8
	s-0.4,0.8-0.8,0.8s-0.8-0.4-0.8-0.8S34.5,23.8,34.9,23.8L34.9,23.8z"/>
<path class="st0" d="M36.4,6.4h-0.9c-1.2,0-2.3,0.3-3.2,1c-0.7,0.5-1.6,0.8-2.5,0.8h-1.6C27,8.1,26,8.9,26,10.1
	c-0.1,1.1,0.8,2.1,1.9,2.2c0.1,0,0.2,0,0.3,0h3.3c-0.1,0.1-0.2,0.2-0.2,0.3c-0.7,0.7-1.7,2-2.4,2.7c-3.3-4-8.1-6.5-13.3-7.1
	c-0.3,0-0.5-0.3-0.5-0.6l0.1-1.8c0-0.5,0.3-0.9,0.8-1.2c0.2,0.2,0.5,0.2,0.8,0.2h0.2l4.6-0.7c0.6-0.1,1.1-0.4,1.4-0.9
	c0.7-1,0.5-2.3-0.5-3c-0.4-0.3-1-0.5-1.5-0.4l-4.7,0.7c-0.4,0.1-0.7,0.3-0.9,0.5c0,0,0,0.1-0.1,0.2c-2,0.6-3.3,2.4-3.4,4.4l-0.1,3
	h-1.5C9.7,7.7,8.7,7,7.5,7H6.2C5.9,7,5.6,7.3,5.6,7.6c0,0,0,0,0,0v0.4C4.8,8.4,4.3,9.2,4.3,10c0,0.8,0.5,1.6,1.3,1.9v0.4
	c0,0.3,0.3,0.6,0.6,0.6c0,0,0,0,0,0h1.3c1.2,0,2.2-0.7,2.7-1.8h1.3l-0.1,2.4c-4.9,0.7-8.3,5.2-7.6,10.1S9.1,32,14,31.3
	c4.9-0.7,8.3-5.2,7.6-10.1c-0.5-3.6-3.2-6.6-6.8-7.4V13c0-0.2,0.1-0.3,0.2-0.4c0.1-0.1,0.3-0.2,0.5-0.1c2.8,0.4,9.5,1.9,12.1,8.5
	c0.3,0.8,0.9,1.4,1.6,1.7c-0.2,0.6-0.3,1.3-0.3,2c0,3.4,2.7,6.1,6,6.1c3.4,0,6.1-2.7,6.1-6c0-3.4-2.7-6.1-6-6.1
	c-1.2,0-2.4,0.4-3.4,1c-0.2,0-0.3-0.2-0.4-0.3C31,19,31,18.8,31.2,18.6c1-1.4,2.1-2.7,3.2-4c0.6-0.6,1-1.4,1.1-2.2h0.9
	c1.7,0,3-1.3,3-3S38.1,6.4,36.4,6.4z M19.4,1.5l0.2,1.9l-1.1,0.2l-0.3-1.8L19.4,1.5z M21.1,1.3h0.1c0.4,0,0.8,0.3,0.9,0.8
	c0,0.2,0,0.5-0.2,0.7c-0.1,0.2-0.4,0.3-0.6,0.4l-0.5,0.1l-0.3-1.8L21.1,1.3z M16.3,2C16.3,2,16.4,2,16.3,2l0.7-0.1l0.3,1.8l-0.6,0.1
	l0,0c0,0-0.1,0-0.1-0.1l-0.3-1.6C16.3,2.1,16.3,2,16.3,2L16.3,2z M6.8,8.4h0.7c1,0.1,1.7,0.9,1.6,1.9c-0.1,0.9-0.8,1.5-1.6,1.6H6.8
	V8.4z M5.6,9.8v0.6c0-0.1-0.1-0.2-0.1-0.3C5.5,10,5.5,9.9,5.6,9.8L5.6,9.8z M14.3,22.7l0.1-1.8c0.9,1,0.8,2.5-0.2,3.3
	S11.7,25,10.9,24c-0.4-0.4-0.6-1-0.6-1.5c0-0.6,0.3-1.3,0.7-1.7L11,22.5c0,0.5,0.1,0.9,0.4,1.2c0.6,0.7,1.7,0.7,2.4,0
	C14.1,23.5,14.3,23.1,14.3,22.7L14.3,22.7z M20.4,22.5c0,4.3-3.4,7.7-7.7,7.7S5,26.8,4.9,22.5c0-3.8,2.7-7,6.5-7.6l-0.2,4.4
	c-1.8,0.9-2.5,3-1.6,4.8c0.9,1.8,3,2.5,4.8,1.6c1.8-0.9,2.5-3,1.6-4.8c-0.3-0.6-0.8-1.2-1.4-1.5l0.2-4.4
	C18.1,15.9,20.4,19,20.4,22.5L20.4,22.5z M39.8,24.6c0,2.7-2.2,4.9-4.8,4.9c-2.7,0-4.9-2.2-4.9-4.8c0-2.7,2.2-4.9,4.8-4.9
	c0,0,0,0,0,0C37.6,19.8,39.7,21.9,39.8,24.6L39.8,24.6z M33.6,13.7c-1.2,1.3-2.3,2.7-3.3,4.1c-0.4,0.5-0.5,1.2-0.2,1.8
	c0.1,0.3,0.3,0.5,0.5,0.7c-0.3,0.3-0.6,0.7-0.8,1.1c-0.5-0.2-0.8-0.6-1-1.1c-2.9-7.1-10.1-8.8-13.1-9.2c-0.5-0.1-1,0.1-1.4,0.4
	c-0.4,0.3-0.6,0.8-0.6,1.3l-0.5,9.7c0,0.2-0.2,0.4-0.5,0.4c-0.1,0-0.2-0.1-0.3-0.2c-0.1-0.1-0.1-0.2-0.1-0.3L13,5.9
	c0.1-1.3,0.8-2.5,2-3.1l0.2,0.9c-0.8,0.4-1.3,1.2-1.3,2.1l-0.1,1.8c0,1,0.7,1.8,1.6,1.9c5.1,0.5,9.8,3.1,13,7.2
	c0.1,0.1,0.3,0.2,0.5,0.2c0.2,0,0.4-0.1,0.5-0.2c0,0,1.8-2.3,2.8-3.2c0.3-0.3,0.6-0.7,0.7-1.2h1.5C34.2,12.9,33.9,13.4,33.6,13.7z
	 M36.4,11.1h-8.2c-0.5,0-0.8-0.4-0.8-0.8s0.4-0.8,0.8-0.8h1.6c1.1,0,2.3-0.3,3.2-1c0.7-0.5,1.6-0.8,2.5-0.8h0.9
	c1-0.1,1.8,0.6,1.9,1.6c0.1,1-0.6,1.8-1.6,1.9C36.6,11.1,36.5,11.1,36.4,11.1z"/>
<path class="st0" d="M3.4,8.9h0.1c0.3,0,0.5-0.2,0.6-0.5C4.2,8.1,4,7.8,3.7,7.7c0,0,0,0,0,0L2.4,7.4C2.1,7.3,1.8,7.5,1.7,7.8
	C1.6,8.2,1.8,8.5,2.1,8.6l0,0L3.4,8.9z"/>
<path class="st0" d="M1.3,10.4c0,0.3,0.3,0.6,0.6,0.6h1.3c0.3,0,0.7-0.2,0.7-0.5S3.7,9.8,3.4,9.8c-0.1,0-0.1,0-0.2,0H1.9
	C1.6,9.8,1.3,10,1.3,10.4z"/>
<path class="st0" d="M2.8,13.5c0.1,0,0.2,0,0.3-0.1l1.1-0.7c0.2-0.2,0.2-0.6,0-0.9c-0.2-0.2-0.4-0.2-0.6-0.1l-1.1,0.7
	c-0.3,0.2-0.4,0.5-0.2,0.8c0,0,0,0,0,0C2.4,13.4,2.6,13.5,2.8,13.5z"/>
</svg>
