 
<svg version="1.1" id="Layer_1" xmlns="http://www.w3.org/2000/svg" xmlns:xlink="http://www.w3.org/1999/xlink" x="0px" y="0px"
	 viewBox="0 0 170.4 219.2" style="enable-background:new 0 0 170.4 219.2;" xml:space="preserve">
<style type="text/css">
	.st0{fill:#302852;}
</style>
<title>teddy</title>
<path class="st0" d="M29.5,219.2c-4.6,0-8.6-3.3-9.4-7.9c-1.6-9.2-0.2-20.5,4.3-33.6c2.7-8.1,6.4-15.8,10.9-23c0-2.5,0.1-5,0.3-7.4
	c-10.5,5.4-20.6,4.8-28.4-2c-4.5-3.9-7-8.9-7.2-14.4c-0.3-8.2,4.3-17.1,13.6-26.4c7.8-7.8,16.6-13.7,25-16.8
	C29.1,78.3,24.3,69.1,24.3,60c0-3,0.5-5.9,1.4-8.7c-2.7-1.2-5.3-2.9-7.5-5c-4.6-4.2-7-8.9-7.2-13.8c-0.2-6,2.8-12.1,9.4-19.2
	c13-13.9,26-16.7,35.7-7.7c2.8,2.6,5,5.7,6.5,9.1c1.4-0.8,2.8-1.6,4.2-2.4c11.5-6.3,25.2-6.3,36.6,0c1.5,0.8,2.9,1.6,4.4,2.5
	c1.8-4.1,4.7-7.8,8.3-10.6c10.4-8.2,23.1-4.3,34.9,10.6l0,0c6,7.7,8.4,14,7.7,20c-0.6,4.9-3.4,9.3-8.4,13.1
	c-1.7,1.4-3.6,2.5-5.6,3.4c0.9,2.7,1.4,5.6,1.4,8.5c0,9.1-4.8,18.4-14.3,27.6c8.4,3.1,17.3,9,25,16.8c9.3,9.4,13.9,18.3,13.6,26.5
	c-0.2,5.5-2.7,10.5-7.2,14.4c-7.8,6.8-17.9,7.5-28.5,2c0.2,2.5,0.3,5,0.3,7.4c4.6,7.2,8.3,15,11,23.1c4.5,13.1,5.9,24.4,4.3,33.5
	c-0.8,4.6-4.8,7.9-9.4,7.9c0,0,0,0,0,0H112c-3.6,0-6.9-2-8.5-5.3c-1.9-3.9-3.6-8-5-12.1c-0.6-1.9-1.3-3.8-1.8-5.8H73.8
	c-0.6,2-1.2,4-1.8,5.8c-1.4,4.1-3.1,8.2-5,12.1c-1.6,3.3-4.9,5.3-8.6,5.3H29.5C29.5,219.2,29.5,219.2,29.5,219.2z M44.4,132.7
	l-1.1,8.2c-0.7,4.9-1,9.8-1,14.7l0,1l-0.6,0.9c-4.5,7-8.1,14.5-10.7,22.3c-4.1,12-5.4,22.1-4,30.1c0.2,1.2,1.3,2.1,2.5,2.1
	c0,0,0,0,0,0h28.9c1,0,1.9-0.5,2.3-1.4c1.8-3.6,3.3-7.4,4.6-11.2c0.9-2.5,1.6-5.1,2.4-8l0.7-2.6H102l0.7,2.6c0.7,2.7,1.5,5.4,2.4,8
	c1.3,3.9,2.8,7.6,4.6,11.2c0.4,0.8,1.3,1.4,2.3,1.4h28.8c0,0,0,0,0,0c1.3,0,2.3-0.9,2.5-2.1c1.4-8,0.1-18.1-4-30.1
	c-2.6-7.9-6.2-15.4-10.8-22.4l-0.6-0.9l0-1c0-4.9-0.3-9.9-1-14.8l-1.1-8.2l6.7,5c10,7.4,19.2,8.2,26,2.3c3-2.7,4.6-5.8,4.8-9.4
	c0.2-6.1-3.8-13.5-11.6-21.3c-8.6-8.7-19-14.9-27.7-16.7l-7.1-1.4l5.6-4.7c11-9.2,16.6-18.2,16.6-26.5c0-3.1-0.8-6.2-2.1-9.1
	l-1.8-3.7l3.9-1.2c2.5-0.7,4.8-1.9,6.9-3.6c3.5-2.7,5.4-5.5,5.7-8.5c0.5-4-1.5-8.8-6.2-14.8c-6.5-8.2-16.1-16.5-25.1-9.4
	c-3.6,2.8-6.2,6.7-7.3,11.1l-1.2,4.6l-4-2.5c-2.5-1.5-5.1-3.1-7.8-4.5c-9.4-5.1-20.5-5.1-29.9,0c-2.5,1.4-5.1,2.9-7.7,4.5l-4.1,2.5
	l-1.2-4.6c-1-3.9-3-7.4-6-10.1C43,2.9,32.7,10.4,25.6,18c-5.2,5.6-7.6,10.2-7.5,14.2c0.1,3,1.7,6,5,8.9c2.3,2.2,5.2,3.8,8.2,4.7
	l3.9,1.2l-1.8,3.7c-1.4,2.9-2.1,6.1-2.1,9.3c0,8.3,5.6,17.2,16.6,26.4l5.6,4.7l-7.1,1.4c-8.7,1.7-19.1,8-27.7,16.7
	c-7.8,7.8-11.8,15.2-11.6,21.3c0.1,3.6,1.7,6.8,4.8,9.4c6.8,5.9,16,5.1,26-2.3L44.4,132.7z"/>
<g>
	<path class="st0" d="M103.2,41.8c2.5,0,4.6,2.1,4.6,4.6s-2.1,4.6-4.6,4.6s-4.6-2.1-4.6-4.6v0C98.6,43.9,100.6,41.9,103.2,41.8z"/>
	<path class="st0" d="M103.2,52.5c-3.4,0-6.1-2.7-6.1-6.1s2.7-6.1,6.1-6.1s6.1,2.7,6.1,6.1S106.5,52.5,103.2,52.5z M103.2,43.4
		c-1.7,0-3.1,1.4-3.1,3.1s1.4,3.1,3.1,3.1s3.1-1.4,3.1-3.1S104.9,43.4,103.2,43.4z"/>
</g>
<g>
	<path class="st0" d="M67.3,41.8c2.5,0,4.6,2.1,4.6,4.6S69.8,51,67.3,51s-4.6-2.1-4.6-4.6l0,0C62.7,43.9,64.7,41.8,67.3,41.8z"/>
	<path class="st0" d="M67.3,52.5c-3.4,0-6.1-2.7-6.1-6.1s2.7-6.1,6.1-6.1c3.4,0,6.1,2.7,6.1,6.1S70.6,52.5,67.3,52.5z M67.3,43.4
		c-1.7,0-3.1,1.4-3.1,3.1s1.4,3.1,3.1,3.1c1.7,0,3.1-1.4,3.1-3.1S69,43.4,67.3,43.4z"/>
</g>
<path class="st0" d="M84.6,95.2c-7,0-13.9-1.8-20-5.3c-6.7-4.1-10.5-9.9-10.5-16c0-11.9,13.7-21.3,31.1-21.3
	c17.5,0,31.1,9.4,31.1,21.3c0,6.2-3.8,12-10.4,16c-6.3,3.6-13.5,5.4-20.7,5.3C85,95.2,84.8,95.2,84.6,95.2z M85.2,59.6
	c-13.1,0-24.1,6.5-24.1,14.3c0,5,4.4,8.4,7,10c5.1,2.9,11,4.4,17,4.3l0.1,0l0.1,0c6,0.1,11.9-1.4,17.1-4.4c4.5-2.7,7-6.2,7-10
	C109.3,66.1,98.3,59.6,85.2,59.6z"/>
<path class="st0" d="M42.7,22.5c0.1,0,0.3,0,0.4,0c1.8,0.5,3.2,3,4,7.1c-2.7,2.2-5.3,4.5-7.8,7c-2.8-0.8-5.6-2-6.2-3.8
	C32,29,39.7,22.5,42.7,22.5 M42.7,15.5L42.7,15.5c-5.5,0-11.2,5.2-13.8,8.6c-3.4,4.6-3.2,8.4-2.4,10.8c1.9,6,8.7,7.9,11,8.5l4,1.1
	l2.9-3c2.2-2.3,4.6-4.5,7.1-6.5l3.3-2.7L54,28.2c-0.4-2.4-1.2-4.7-2.3-6.9c-1.4-2.7-3.8-4.7-6.8-5.6C44.2,15.6,43.5,15.5,42.7,15.5
	L42.7,15.5z"/>
<path class="st0" d="M85.2,173.8c-3.7,0-7.3-0.5-10.9-1.5c-0.2-0.1-0.5-0.1-0.7-0.2l-0.2-0.1c-10.3-3.5-16.7-13.9-15.2-24.6
	c0.4-2.8,0.9-5.6,1.6-8.3c4.3-16.2,14.2-26.7,25.3-26.7c11.1,0,21,10.5,25.3,26.7c0.7,2.7,1.3,5.5,1.6,8.3
	c1.5,10.7-4.9,21.1-15.2,24.6l-0.1,0c-0.3,0.1-0.6,0.2-0.9,0.3C92.5,173.3,88.9,173.8,85.2,173.8z M85.2,119.3
	c-7.8,0-15.1,8.5-18.5,21.5c-0.6,2.4-1.1,4.9-1.5,7.5c-1,7.5,3.4,14.7,10.5,17.1c0.1,0,0.2,0.1,0.3,0.1c0.1,0,0.1,0.1,0.2,0.1
	c5.9,1.7,12,1.7,17.8,0c0.2,0,0.3-0.1,0.4-0.1l0.2-0.1c7.1-2.4,11.6-9.6,10.5-17.1c-0.3-2.5-0.8-5-1.5-7.5
	C100.3,127.7,93,119.3,85.2,119.3z"/>
<path class="st0" d="M127.6,22.2c2.9,0,10.3,7.4,8.8,11.1c-0.6,1.6-3,2.5-5.5,3.1c-2.6-2.6-5.3-5-8.1-7.3c1.2-4.1,2.7-6.6,4.6-6.9
	L127.6,22.2 M127.6,15.2L127.6,15.2c-0.5,0-0.9,0-1.4,0.1c-7.2,1.2-9.4,9.2-10.2,11.9l-1.3,4.5l3.6,2.9c2.6,2.1,5.1,4.3,7.5,6.7
	l2.7,2.8l3.8-0.9c5.5-1.2,9-3.7,10.4-7.3c1-2.5,1.5-6.5-2-11.7C138.8,21.2,133.3,15.2,127.6,15.2z"/>
<path class="st0" d="M85.2,80.3C77.4,80.3,68,79,68,73.1c0-6.9,7.6-12.3,17.2-12.3c9.6,0,17.2,5.4,17.2,12.3c0,3-2.3,5-7,6.1
	C92.7,79.9,89.1,80.3,85.2,80.3z M75.3,72.1c3.9,1.5,16.1,1.5,19.9,0c-1-2.2-4.9-4.3-10-4.3C80.2,67.8,76.2,69.9,75.3,72.1z"/>
</svg>
