 
<svg version="1.1" id="_ÎÓÈ_1" xmlns="http://www.w3.org/2000/svg" xmlns:xlink="http://www.w3.org/1999/xlink" x="0px" y="0px"
	 viewBox="0 0 68 68" style="enable-background:new 0 0 68 68;" xml:space="preserve">
<style type="text/css">
	.st0{fill:#1F1844;}
	.st1{fill:#FFFFFF;}
</style>
<title>toddler-icon-click_1</title>
<g>
	<circle class="st0" cx="34" cy="34" r="33"/>
	<path d="M34,2c17.6,0,32,14.4,32,32S51.6,66,34,66S2,51.6,2,34S16.4,2,34,2 M34,0C15.2,0,0,15.2,0,34s15.2,34,34,34s34-15.2,34-34
		S52.8,0,34,0L34,0z"/>
</g>
<path class="st1" d="M25.2,28.6c0,2.1,1.7,3.8,3.8,3.8c0,0,0,0,0,0h11c2.1,0,3.8-1.7,3.8-3.8v-11c0-2.1-1.7-3.8-3.8-3.8l0,0H29
	c-2.1,0-3.8,1.7-3.8,3.8l0,0L25.2,28.6z M29,15.1h11c1.4,0,2.5,1.1,2.5,2.5v11c0,1.4-1.1,2.6-2.5,2.6H29c-1.4,0-2.6-1.2-2.5-2.6v-11
	C26.5,16.2,27.6,15.1,29,15.1z"/>
<path class="st1" d="M33.8,37.1c0-2.1-1.7-3.8-3.8-3.8l0,0H19c-2.1,0-3.8,1.7-3.8,3.8l0,0v11c0,2.1,1.7,3.8,3.8,3.8h11
	c2.1,0,3.8-1.7,3.8-3.8V37.1z M30,50.7H19c-1.4,0-2.6-1.1-2.6-2.6l0,0v-11c0-1.4,1.1-2.6,2.6-2.6l0,0h11c1.4,0,2.6,1.1,2.6,2.6
	c0,0,0,0,0,0v11C32.6,49.5,31.5,50.7,30,50.7L30,50.7z"/>
<path class="st1" d="M53.6,37.1c0-2.1-1.7-3.8-3.8-3.8h-11c-2.1,0-3.8,1.7-3.8,3.8l0,0v11c0,2.1,1.7,3.8,3.8,3.8h11
	c2.1,0,3.8-1.7,3.8-3.8c0,0,0,0,0,0V37.1z M49.8,50.7h-11c-1.4,0-2.5-1.2-2.5-2.6v-11c0-1.4,1.1-2.6,2.5-2.6h11
	c1.4,0,2.6,1.1,2.6,2.6c0,0,0,0,0,0v11C52.4,49.5,51.3,50.7,49.8,50.7C49.8,50.7,49.8,50.7,49.8,50.7z"/>
<path class="st1" d="M29.2,23c0,2.6,2.1,4.7,4.7,4.8c1.4,0,2.8-0.6,3.7-1.8c0.2,1,1.2,1.8,2.2,1.8c0.3,0,0.5,0,0.8-0.1l0.4-0.1
	c0.3-0.1,0.5-0.5,0.3-0.8c-0.1-0.3-0.4-0.4-0.7-0.4l-0.4,0.1c-0.6,0.2-1.2-0.1-1.4-0.7c0-0.1-0.1-0.2-0.1-0.3v-5
	c0-0.3-0.3-0.6-0.6-0.6c-0.2,0-0.4,0.1-0.5,0.2c-1.6-2.1-4.5-2.5-6.6-0.9C29.8,20.1,29.2,21.5,29.2,23z M33.9,19.5
	c1.9,0,3.5,1.6,3.5,3.5s-1.6,3.5-3.5,3.5c-1.9,0-3.5-1.6-3.5-3.5C30.4,21.1,32,19.5,33.9,19.5L33.9,19.5z"/>
<path class="st1" d="M27.8,42.1h-3.1c-0.3,0-0.6,0.3-0.5,0.7c0,0.3,0.3,0.5,0.5,0.5h2.5c-0.3,1.9-2.2,3.2-4.1,2.8
	c-1.9-0.3-3.2-2.2-2.8-4.1c0.3-1.7,1.8-2.9,3.5-2.9c0.8,0,1.6,0.3,2.2,0.8c0.2,0.2,0.6,0.2,0.8-0.1c0,0,0,0,0,0
	c0.2-0.3,0.2-0.6-0.1-0.9c0,0,0,0,0,0c-2-1.7-5-1.4-6.7,0.6c-1.7,2-1.4,5,0.6,6.7s5,1.4,6.7-0.6c0.7-0.8,1.1-1.9,1.1-3
	C28.4,42.3,28.2,42.1,27.8,42.1z"/>
<path class="st1" d="M47.5,42.4c0.6-0.5,0.9-1.2,0.9-1.9c0-1.4-1.1-2.5-2.5-2.5h-5.1c-0.3,0-0.6,0.3-0.6,0.6v8.2
	c0,0.3,0.3,0.6,0.6,0.6h5.1c1.4,0,2.5-1.1,2.5-2.5v-0.5C48.4,43.6,48.1,42.9,47.5,42.4z M41.4,39.1h4.5c0.7,0,1.3,0.6,1.3,1.3
	c0,0.7-0.6,1.3-1.3,1.3h-4.5V39.1z M47.2,44.8c0,0.7-0.6,1.3-1.3,1.3h0l0,0h-4.5V43h4.5c0.7,0,1.3,0.6,1.3,1.3L47.2,44.8z"/>
</svg>
