<?xml version="1.0" encoding="utf-8"?>
<!-- Generator: Adobe Illustrator 23.0.6, SVG Export Plug-In . SVG Version: 6.00 Build 0)  -->
<svg version="1.1" id="_ÎÓÈ_1" xmlns="http://www.w3.org/2000/svg" xmlns:xlink="http://www.w3.org/1999/xlink" x="0px" y="0px"
	 viewBox="0 0 38.3 38.1" style="enable-background:new 0 0 38.3 38.1;" xml:space="preserve">
<style type="text/css">
	.st0{fill:#FFFFFF;}
</style>
<g>
	<path class="st0" d="M9.9,14.8c0,2.1,1.7,3.8,3.8,3.8c0,0,0,0,0,0h11c2.1,0,3.8-1.7,3.8-3.8v-11c0-2.1-1.7-3.8-3.8-3.8l0,0h-11
		C11.6,0,10,1.7,10,3.8l0,0L9.9,14.8z M13.7,1.2h11c1.4,0,2.5,1.1,2.5,2.5v11c0,1.4-1.1,2.6-2.5,2.6h-11c-1.4,0-2.6-1.2-2.5-2.6v-11
		C11.2,2.4,12.3,1.2,13.7,1.2z"/>
	<path class="st0" d="M18.5,23.3c0-2.1-1.7-3.8-3.8-3.8l0,0h-11c-2.1,0-3.8,1.7-3.8,3.8l0,0v11c0,2.1,1.7,3.8,3.8,3.8h11
		c2.1,0,3.8-1.7,3.8-3.8V23.3z M14.8,36.8h-11c-1.4,0-2.6-1.1-2.6-2.6l0,0v-11c0-1.4,1.1-2.6,2.6-2.6l0,0h11c1.4,0,2.6,1.1,2.6,2.6
		c0,0,0,0,0,0v11C17.3,35.7,16.2,36.8,14.8,36.8L14.8,36.8z"/>
	<path class="st0" d="M38.3,23.3c0-2.1-1.7-3.8-3.8-3.8h-11c-2.1,0-3.8,1.7-3.8,3.8l0,0v11c0,2.1,1.7,3.8,3.8,3.8h11
		c2.1,0,3.8-1.7,3.8-3.8c0,0,0,0,0,0V23.3z M34.5,36.8h-11c-1.4,0-2.5-1.2-2.5-2.6v-11c0-1.4,1.1-2.6,2.5-2.6h11
		c1.4,0,2.6,1.1,2.6,2.6c0,0,0,0,0,0v11C37.1,35.7,36,36.8,34.5,36.8C34.6,36.8,34.6,36.8,34.5,36.8z"/>
	<path class="st0" d="M13.9,9.2c0,2.6,2.1,4.7,4.7,4.8c1.4,0,2.8-0.6,3.7-1.8c0.2,1,1.2,1.8,2.2,1.8c0.3,0,0.5,0,0.8-0.1l0.4-0.1
		c0.3-0.1,0.5-0.5,0.3-0.8c-0.1-0.3-0.4-0.4-0.7-0.4l-0.4,0.1c-0.6,0.2-1.2-0.1-1.4-0.7c0-0.1-0.1-0.2-0.1-0.3v-5
		c0-0.3-0.3-0.6-0.6-0.6c-0.2,0-0.4,0.1-0.5,0.2c-1.6-2.1-4.5-2.5-6.6-0.9C14.6,6.3,13.9,7.7,13.9,9.2z M18.6,5.7
		c1.9,0,3.5,1.6,3.5,3.5s-1.6,3.5-3.5,3.5c-1.9,0-3.5-1.6-3.5-3.5C15.1,7.2,16.7,5.7,18.6,5.7L18.6,5.7z"/>
	<path class="st0" d="M12.6,28.3H9.4c-0.3,0-0.6,0.3-0.5,0.7c0,0.3,0.3,0.5,0.5,0.5h2.5c-0.3,1.9-2.2,3.2-4.1,2.8
		C5.9,32,4.6,30.1,5,28.2c0.3-1.7,1.8-2.9,3.5-2.9c0.8,0,1.6,0.3,2.2,0.8c0.2,0.2,0.6,0.2,0.8-0.1c0,0,0,0,0,0
		c0.2-0.3,0.2-0.6-0.1-0.9c0,0,0,0,0,0c-2-1.7-5-1.4-6.7,0.6c-1.7,2-1.4,5,0.6,6.7c2,1.7,5,1.4,6.7-0.6c0.7-0.8,1.1-1.9,1.1-3
		C13.1,28.5,12.9,28.3,12.6,28.3z"/>
	<path class="st0" d="M32.2,28.5c0.6-0.5,0.9-1.2,0.9-1.9c0-1.4-1.1-2.5-2.5-2.5h-5.1c-0.3,0-0.6,0.3-0.6,0.6v8.2
		c0,0.3,0.3,0.6,0.6,0.6h5.1c1.4,0,2.5-1.1,2.5-2.5v-0.5C33.1,29.7,32.8,29,32.2,28.5z M26.1,25.3h4.5c0.7,0,1.3,0.6,1.3,1.3
		c0,0.7-0.6,1.3-1.3,1.3h-4.5V25.3z M31.9,31c0,0.7-0.6,1.3-1.3,1.3h0l0,0h-4.5v-3.1h4.5c0.7,0,1.3,0.6,1.3,1.3L31.9,31z"/>
</g>
</svg>
