<svg id="_ÎÓÈ_1" data-name="—ÎÓÈ_1" xmlns="http://www.w3.org/2000/svg" viewBox="0 0 68 68"><defs><style>.cls-1{fill:#bcb0c4;}</style></defs><title>toddler-icon_1</title><path class="cls-1" d="M25.19,28.6A3.78,3.78,0,0,0,29,32.38h11a3.78,3.78,0,0,0,3.77-3.78v-11a3.77,3.77,0,0,0-3.77-3.77H29a3.77,3.77,0,0,0-3.77,3.77ZM29,15.08h11a2.55,2.55,0,0,1,2.55,2.55v11a2.56,2.56,0,0,1-2.55,2.56H29a2.56,2.56,0,0,1-2.55-2.56v-11A2.55,2.55,0,0,1,29,15.08Z"/><path class="cls-1" d="M33.82,37.13a3.77,3.77,0,0,0-3.77-3.77h-11a3.77,3.77,0,0,0-3.77,3.77v11a3.78,3.78,0,0,0,3.77,3.78h11a3.78,3.78,0,0,0,3.77-3.78ZM30.05,50.66h-11a2.56,2.56,0,0,1-2.56-2.56v-11a2.56,2.56,0,0,1,2.56-2.56h11a2.56,2.56,0,0,1,2.56,2.56v11A2.56,2.56,0,0,1,30.05,50.66Z"/><path class="cls-1" d="M53.6,37.13a3.78,3.78,0,0,0-3.78-3.77h-11a3.77,3.77,0,0,0-3.77,3.77v11a3.78,3.78,0,0,0,3.77,3.78h11A3.79,3.79,0,0,0,53.6,48.1ZM49.82,50.66h-11A2.56,2.56,0,0,1,36.3,48.1v-11a2.56,2.56,0,0,1,2.55-2.56h11a2.56,2.56,0,0,1,2.56,2.56v11A2.56,2.56,0,0,1,49.82,50.66Z"/><path class="cls-1" d="M29.17,23a4.73,4.73,0,0,0,8.41,3,2.26,2.26,0,0,0,2.21,1.76,2.15,2.15,0,0,0,.75-.13l.41-.14a.61.61,0,0,0-.4-1.15l-.41.14a1.06,1.06,0,0,1-1.41-1v-5a.61.61,0,0,0-1.09-.37A4.72,4.72,0,0,0,29.17,23Zm4.73-3.51A3.51,3.51,0,1,1,30.39,23,3.51,3.51,0,0,1,33.9,19.51Z"/><path class="cls-1" d="M27.83,42.08H24.68a.61.61,0,0,0,0,1.21h2.48a3.51,3.51,0,1,1-3.45-4.12,3.56,3.56,0,0,1,2.23.8.59.59,0,0,0,.85-.08.61.61,0,0,0-.08-.86,4.73,4.73,0,1,0,1.72,3.65A.6.6,0,0,0,27.83,42.08Z"/><path class="cls-1" d="M47.51,42.37a2.52,2.52,0,0,0,.9-1.93,2.55,2.55,0,0,0-2.55-2.54H40.78a.61.61,0,0,0-.61.6v8.23a.62.62,0,0,0,.61.61h5.08a2.55,2.55,0,0,0,2.55-2.55v-.48A2.56,2.56,0,0,0,47.51,42.37Zm-6.12-3.26h4.47a1.33,1.33,0,0,1,0,2.66H41.39Zm5.8,5.68a1.33,1.33,0,0,1-1.33,1.33v0H41.39V43h4.47a1.34,1.34,0,0,1,1.33,1.33Z"/><path class="cls-1" d="M34,2A32,32,0,1,1,2,34,32,32,0,0,1,34,2m0-2A34,34,0,1,0,68,34,34,34,0,0,0,34,0Z"/></svg>